<?xml version="1.0" encoding="utf-8"?>
<!-- Generator: Adobe Illustrator 26.0.0, SVG Export Plug-In . SVG Version: 6.00 Build 0)  -->
<svg version="1.1" id="Capa_1" xmlns="http://www.w3.org/2000/svg" xmlns:xlink="http://www.w3.org/1999/xlink" x="0px" y="0px"
	 viewBox="0 0 104 62" style="enable-background:new 0 0 104 62;" xml:space="preserve">
<style type="text/css">
	.st0{fill:#CB1518;}
	.st1{fill:#FFE00A;}
	.st2{fill:none;stroke:#000000;stroke-width:1.5;stroke-linecap:round;stroke-linejoin:round;stroke-miterlimit:10;}
</style>
<g>
	<g>
		<g>
			<circle class="st0" cx="70.5" cy="29.9" r="28.8"/>
			<g>
				<path class="st1" d="M74.4,21.6l1.6,6.9c0.6,2.8,2.4,5.2,4.8,6.6l3.2,1.9L80.9,39c-2.5,1.4-4.2,3.8-4.8,6.6l-1.6,6.9l-1.6-6.9
					c-0.6-2.8-2.4-5.2-4.8-6.6l-3.2-1.9l3.2-1.9c2.5-1.4,4.2-3.8,4.8-6.6L74.4,21.6z"/>
				<path class="st1" d="M66.4,18.9l0.5,2.2c0.2,0.9,0.8,1.7,1.6,2.1l1,0.6l-1,0.6c-0.8,0.5-1.4,1.2-1.6,2.1l-0.5,2.2l-0.5-2.2
					c-0.2-0.9-0.8-1.7-1.6-2.1l-1-0.6l1-0.6c0.8-0.5,1.4-1.2,1.6-2.1L66.4,18.9z"/>
				<path class="st1" d="M81.1,7.6l1.1,4.5c0.4,1.8,1.6,3.4,3.2,4.3l2.1,1.2L85.3,19c-1.6,0.9-2.8,2.5-3.2,4.3l-1.1,4.5L80,23.3
					c-0.4-1.8-1.6-3.4-3.2-4.3l-2.1-1.2l2.1-1.2c1.6-0.9,2.8-2.5,3.2-4.3L81.1,7.6z"/>
			</g>
		</g>
	</g>
	<g>
		<g>
			<g>
				<line class="st2" x1="24.2" y1="60.8" x2="43" y2="60.8"/>
				<g>
					<path class="st2" d="M33.4,51.6c0,0-2.4,0.7-2.6,3.3c-0.2,2.6,2,2.6,2.8,2.5c1.2-0.1,2.3-1.5,1.3-2.8
						C33.9,53.3,33.1,52.3,33.4,51.6z"/>
					<path class="st2" d="M23.5,51.8c0,0-1.1,1.7,0.4,4.1c1.5,2.4,3,1.4,3.4,1c0.7-0.7,0.5-2.4-0.9-3.1S23.8,52.6,23.5,51.8z"/>
					<path class="st2" d="M42.5,51.8c0,0,1.1,1.7-0.4,4.1s-3,1.4-3.4,1c-0.7-0.7-0.5-2.4,0.9-3.1S42.3,52.6,42.5,51.8z"/>
				</g>
			</g>
			<g>
				<g>
					<path class="st2" d="M32.2,21.5L32.2,21.5c0,0-0.1,0-0.3,0c-0.2,0-0.3,0-0.3,0v0c-3.2,0-21.9,0.2-21.9,0c0,0,0,15.4,0,21.6
						c0,6.2,10.4,5.8,22.1,5.7c11.7,0,22.1,0.4,22.1-5.7c0-6.2,0-21.6,0-21.6C54,21.7,35.4,21.5,32.2,21.5z"/>
					<path class="st2" d="M54.2,23.5h5c0,0,0.8,5.2-5,5.6"/>
					<path class="st2" d="M9.7,23.5h-5c0,0-0.8,5.2,5,5.6"/>
				</g>
			</g>
		</g>
	</g>
</g>
</svg>