<?xml version="1.0" encoding="UTF-8" standalone="no"?>
<svg
   xmlns:dc="http://purl.org/dc/elements/1.1/"
   xmlns:cc="http://creativecommons.org/ns#"
   xmlns:rdf="http://www.w3.org/1999/02/22-rdf-syntax-ns#"
   xmlns:svg="http://www.w3.org/2000/svg"
   xmlns="http://www.w3.org/2000/svg"
   id="svg3409"
   version="1.1"
   viewBox="0 0 15.999999 16.000001"
   height="16mm"
   width="16mm">
  <defs
     id="defs3403" />
  <metadata
     id="metadata3406">
    <rdf:RDF>
      <cc:Work
         rdf:about="">
        <dc:format>image/svg+xml</dc:format>
        <dc:type
           rdf:resource="http://purl.org/dc/dcmitype/StillImage" />
        <dc:title></dc:title>
      </cc:Work>
    </rdf:RDF>
  </metadata>
  <g
     transform="translate(-56.599702,64.452307)"
     id="layer1">
    <g
       id="g4017"
       transform="matrix(0.35277777,0,0,-0.35277777,113.78053,1140.1128)">
      <g
         id="g1336"
         transform="translate(-156.852,3375.8929)">
        <path
           d="M 0,0 C 0,0.273 0.165,0.52 0.417,0.624 0.67,0.729 0.96,0.672 1.154,0.479 1.347,0.285 1.405,-0.006 1.3,-0.259 1.196,-0.511 0.949,-0.676 0.676,-0.676 0.303,-0.676 0,-0.373 0,0 M 2.703,0 C 2.703,0.538 2.49,1.054 2.109,1.434 1.729,1.813 1.213,2.027 0.676,2.027 0.139,2.027 -0.377,1.813 -0.757,1.434 -1.138,1.054 -1.351,0.538 -1.351,0 c 0,-0.537 0.213,-1.053 0.594,-1.434 0.38,-0.379 0.896,-0.593 1.433,-0.593 0.537,0 1.053,0.214 1.433,0.593 C 2.49,-1.053 2.703,-0.537 2.703,0"
           style="fill:#000000;fill-opacity:1;fill-rule:nonzero;stroke:none"
           id="path1338" />
      </g>
      <g
         id="g1340"
         transform="translate(-123.7412,3386.7054)">
        <path
           d="m 0,0 h -31.083 c -0.779,-0.001 -1.534,0.269 -2.138,0.761 -0.603,0.493 -1.018,1.178 -1.174,1.942 H 3.311 C 3.156,1.939 2.741,1.254 2.137,0.761 1.534,0.269 0.779,-0.001 0,0 m -12.419,-1.352 h 7.993 l -6.622,-4.73 h -7.872 c -0.373,0 -0.676,0.303 -0.676,0.676 0,0.373 0.303,0.676 0.676,0.676 h 4.392 c 0.627,0 1.229,0.249 1.673,0.692 0.443,0.444 0.692,1.046 0.692,1.673 -0.008,0.352 -0.096,0.699 -0.257,1.013 z m 11.163,-2.561 -8.204,-6.798 c -0.606,-0.502 -1.369,-0.776 -2.156,-0.776 h -16.089 v 7.115 l 3.041,2.548 c 0.364,0.304 0.823,0.471 1.297,0.472 h 8.784 c 0.56,0 1.014,-0.454 1.014,-1.013 0,-0.56 -0.454,-1.014 -1.014,-1.014 h -4.337 c -0.725,0 -1.394,-0.387 -1.756,-1.014 -0.362,-0.627 -0.362,-1.4 0,-2.027 0.362,-0.627 1.031,-1.014 1.756,-1.014 h 8.108 c 0.141,0.001 0.278,0.046 0.392,0.129 l 7.717,5.521 c 0.293,0.206 0.659,0.28 1.009,0.208 0.35,-0.073 0.655,-0.288 0.842,-0.593 0.166,-0.288 0.217,-0.628 0.142,-0.952 -0.076,-0.323 -0.271,-0.607 -0.547,-0.792 z m -14.286,24.184 c 4.301,0 8.426,-1.709 11.468,-4.75 3.041,-3.042 4.75,-7.167 4.75,-11.467 h -32.435 c 0,4.301 1.708,8.426 4.75,11.467 3.041,3.041 7.166,4.75 11.467,4.75 z M 4.055,4.054 H 2.027 c 0.004,4.545 -1.754,8.914 -4.904,12.19 -3.15,3.276 -7.447,5.204 -11.989,5.379 v 2.026 h 1.351 v 1.352 h -4.054 v -1.352 h 1.352 v -2.026 c -4.542,-0.175 -8.839,-2.103 -11.989,-5.379 -3.15,-3.276 -4.908,-7.645 -4.905,-12.19 h -2.027 c -0.373,0 -0.676,-0.303 -0.676,-0.676 0,-1.255 0.499,-2.458 1.386,-3.345 0.886,-0.887 2.09,-1.386 3.345,-1.386 h 4.871 l -1.797,-1.493 c -0.107,0.084 -0.236,0.133 -0.372,0.143 h -7.433 v -1.352 h 6.757 v -10.136 h -6.757 v -1.351 h 7.433 c 0.179,0 0.351,0.07 0.478,0.197 0.127,0.127 0.198,0.299 0.198,0.479 v 2.026 h 16.089 c 1.101,10e-4 2.167,0.386 3.014,1.088 l 8.17,6.758 c 0.539,0.386 0.914,0.961 1.05,1.611 0.135,0.65 0.021,1.326 -0.32,1.896 0,0.048 -0.068,0.088 -0.095,0.134 1.219,0.053 2.371,0.575 3.214,1.457 0.844,0.88 1.314,2.054 1.313,3.274 0,0.18 -0.071,0.351 -0.198,0.477 C 4.406,3.982 4.234,4.054 4.055,4.054"
           style="fill:#000000;fill-opacity:1;fill-rule:nonzero;stroke:none"
           id="path1342" />
      </g>
    </g>
  </g>
</svg>
