<?xml version="1.0" encoding="UTF-8" standalone="no"?>
<svg
   xmlns:dc="http://purl.org/dc/elements/1.1/"
   xmlns:cc="http://creativecommons.org/ns#"
   xmlns:rdf="http://www.w3.org/1999/02/22-rdf-syntax-ns#"
   xmlns:svg="http://www.w3.org/2000/svg"
   xmlns="http://www.w3.org/2000/svg"
   id="svg3409"
   version="1.1"
   viewBox="0 0 15.999999 16.000001"
   height="16mm"
   width="16mm">
  <defs
     id="defs3403" />
  <metadata
     id="metadata3406">
    <rdf:RDF>
      <cc:Work
         rdf:about="">
        <dc:format>image/svg+xml</dc:format>
        <dc:type
           rdf:resource="http://purl.org/dc/dcmitype/StillImage" />
        <dc:title></dc:title>
      </cc:Work>
    </rdf:RDF>
  </metadata>
  <g
     transform="translate(-56.599702,64.452307)"
     id="layer1">
    <g
       id="g8033"
       transform="matrix(0.33870249,0,0,-0.33870249,64.017888,1093.2435)">
      <g
         id="g1356"
         transform="translate(10.4903,3417.6673)">
        <path
           d="m 0,0 -5.949,-11.988 c -1.372,1.044 -3.004,1.565 -4.635,1.565 -2.134,0 -4.129,-0.884 -5.577,-2.414 -2.162,0.103 -4.261,-0.664 -5.872,-2.108 -1.696,-1.518 -2.672,-3.613 -2.873,-5.868 l -1.248,10e-4 v -2.151 c 0,-4.283 1.752,-8.177 4.571,-10.997 2.523,-2.521 5.902,-4.187 9.651,-4.514 v -5.353 h -7.963 v -2.695 h 18.623 v 2.694 h -7.963 v 5.354 c 3.749,0.325 7.129,1.993 9.651,4.514 2.821,2.819 4.573,6.714 4.573,10.997 v 2.15 h -1.25 c -0.187,2.097 -1.045,4.062 -2.543,5.557 l 9.462,7.593 -1.684,2.095 -10.057,-8.072 c -0.738,0.355 -1.522,0.599 -2.324,0.722 l 5.819,11.73 z m -7.91,-17.401 -0.432,-1.693 2.838,-0.724 0.432,1.693 z m -5.177,-1.528 -1.931,2.203 -1.314,-1.152 1.931,-2.203 z m 4.074,2.835 -0.797,1.555 -2.606,-1.337 0.797,-1.555 z m -1.571,2.977 c 2.162,0 3.254,-1.051 4.447,-2.571 2.015,0.302 3.527,0.253 5.213,-1.258 1.145,-1.026 1.749,-2.36 1.955,-3.866 h -23.23 c 0.206,1.505 0.809,2.84 1.955,3.866 1.689,1.512 3.197,1.557 5.214,1.258 1.204,1.534 2.332,2.571 4.446,2.571 M -23.447,-23.509 H 2.281 c -0.141,-3.323 -1.559,-6.332 -3.771,-8.546 -2.334,-2.334 -5.552,-3.782 -9.092,-3.782 -3.539,0 -6.758,1.448 -9.092,3.782 -2.215,2.214 -3.633,5.223 -3.774,8.546"
           style="fill:#000000;fill-opacity:1;fill-rule:evenodd;stroke:none"
           id="path1358" />
      </g>
    </g>
  </g>
</svg>
