<?xml version="1.0" encoding="UTF-8" standalone="no"?>
<svg
   xmlns:dc="http://purl.org/dc/elements/1.1/"
   xmlns:cc="http://creativecommons.org/ns#"
   xmlns:rdf="http://www.w3.org/1999/02/22-rdf-syntax-ns#"
   xmlns:svg="http://www.w3.org/2000/svg"
   xmlns="http://www.w3.org/2000/svg"
   id="svg3409"
   version="1.1"
   viewBox="0 0 15.999999 16.000001"
   height="16mm"
   width="16mm">
  <defs
     id="defs3403" />
  <metadata
     id="metadata3406">
    <rdf:RDF>
      <cc:Work
         rdf:about="">
        <dc:format>image/svg+xml</dc:format>
        <dc:type
           rdf:resource="http://purl.org/dc/dcmitype/StillImage" />
        <dc:title></dc:title>
      </cc:Work>
    </rdf:RDF>
  </metadata>
  <g
     transform="translate(-56.599702,64.452307)"
     id="layer1">
    <g
       transform="matrix(0.35277777,0,0,-0.35277777,67.858067,-51.885835)"
       id="g1380">
      <path
         id="path1382"
         style="fill:#231f20;fill-opacity:1;fill-rule:evenodd;stroke:none"
         d="m 0,0 h -18.214 c -5.862,3.141 -9.56,9.142 -9.839,15.701 H 9.84 C 9.491,9.142 5.792,3.14 0,0 Z m -17.585,-1.744 h 16.958 v -2.652 h -16.958 z m -7.049,26.308 7.118,-7.118 h -6.769 c -1.744,2.024 -1.884,4.954 -0.349,7.118 m 8.374,4.118 v -9.98 l -4.815,4.745 c 0.21,2.722 2.233,4.885 4.815,5.234 z m 7.467,-3.838 c -2.442,0.278 -4.327,-0.21 -5.722,-2.444 v -4.954 h 5.722 l -3.21,3.28 1.186,1.186 4.466,-4.466 h 1.536 v 7.398 h 1.744 v -7.398 h 1.535 l 4.467,4.466 1.256,-1.186 -3.28,-3.28 h 6.071 c 1.675,4.187 -1.605,7.886 -6.001,7.398 -2.443,4.117 -7.397,4.047 -9.77,0 z M 8.862,17.446 c 1.466,4.676 -2.163,9.421 -6.978,9.282 -0.698,0.907 -1.466,1.605 -2.373,2.093 v 0.645 c 0,0.767 -0.628,1.326 -1.396,1.326 -0.698,0 -1.325,-0.559 -1.325,-1.326 v 0.192 c -0.559,0.07 -1.117,0.07 -1.675,0 v -0.192 c 0,0.681 -0.441,1.198 -1.077,1.305 -0.842,0.142 -1.575,-0.614 -1.575,-1.467 v -0.622 c -0.838,-0.489 -1.605,-1.117 -2.164,-1.954 -1.744,0.07 -3.489,-0.558 -4.815,-1.674 v 5.442 c -3.838,0 -7.048,-1.535 -8.025,-5.513 l -2.093,2.094 c -2.722,-2.722 -3.839,-6.071 -1.815,-9.63 h -3.349 c 0,-7.955 3.349,-14.864 10.467,-18.842 V -6.14 H 1.116 v 4.745 C 8.165,2.583 11.583,9.492 11.583,17.447 H 8.862 Z" />
    </g>
  </g>
</svg>
