<?xml version="1.0" encoding="UTF-8" standalone="no"?>
<svg
   xmlns:dc="http://purl.org/dc/elements/1.1/"
   xmlns:cc="http://creativecommons.org/ns#"
   xmlns:rdf="http://www.w3.org/1999/02/22-rdf-syntax-ns#"
   xmlns:svg="http://www.w3.org/2000/svg"
   xmlns="http://www.w3.org/2000/svg"
   id="svg3409"
   version="1.1"
   viewBox="0 0 15.999999 16.000001"
   height="16mm"
   width="16mm">
  <defs
     id="defs3403">
    <clipPath
       id="clipPath1282"
       clipPathUnits="userSpaceOnUse">
      <path
         id="path1280"
         d="M 0,4519.341 H 1280 V 0 H 0 Z" />
    </clipPath>
    <clipPath
       id="clipPath1124"
       clipPathUnits="userSpaceOnUse">
      <path
         id="path1122"
         d="M 0,4519.341 H 1280 V 0 H 0 Z" />
    </clipPath>
    <clipPath
       id="clipPath1210"
       clipPathUnits="userSpaceOnUse">
      <path
         id="path1208"
         d="M 0,4519.341 H 1280 V 0 H 0 Z" />
    </clipPath>
    <clipPath
       id="clipPath1246"
       clipPathUnits="userSpaceOnUse">
      <path
         id="path1244"
         d="M 0,4519.341 H 1280 V 0 H 0 Z" />
    </clipPath>
  </defs>
  <metadata
     id="metadata3406">
    <rdf:RDF>
      <cc:Work
         rdf:about="">
        <dc:format>image/svg+xml</dc:format>
        <dc:type
           rdf:resource="http://purl.org/dc/dcmitype/StillImage" />
        <dc:title></dc:title>
      </cc:Work>
    </rdf:RDF>
  </metadata>
  <g
     transform="translate(-56.599702,64.452307)"
     id="layer1">
    <g
       id="g1240"
       transform="matrix(0.35277777,0,0,-0.35277777,-331.07738,1131.8625)">
      <g
         clip-path="url(#clipPath1246)"
         id="g1242">
        <g
           transform="translate(1138.1896,3359.4314)"
           id="g1248">
          <path
             id="path1250"
             style="fill:#000000;fill-opacity:1;fill-rule:nonzero;stroke:none"
             d="m 0,0 c -0.977,-0.075 -1.727,0.601 -1.802,1.427 -1.35,11.557 -10.732,21.013 -22.29,22.289 -0.9,0.075 -1.576,0.9 -1.426,1.802 0.076,0.825 0.827,1.65 2.177,1.35 C -10.583,25.217 -0.227,14.785 1.425,2.027 1.65,0.826 0.824,0.075 -0.001,0.001 Z m -14.71,-2.927 c -0.075,0.301 -0.15,0.601 -0.15,0.901 0,2.176 1.726,3.903 3.902,3.903 1.727,0 3.152,-1.126 3.678,-2.702 z M -28.97,9.307 c 0.225,0 0.45,-0.076 0.675,-0.076 2.327,0 4.278,1.952 4.278,4.278 0,1.726 -1.05,3.303 -2.627,3.903 l 1.426,4.953 c 0.301,-0.15 0.45,-0.225 0.901,-0.225 10.807,-1.276 19.663,-10.057 20.863,-20.864 0,-0.299 0.15,-0.6 0.225,-0.9 l -2.476,-0.675 c -0.676,2.251 -2.852,3.903 -5.254,3.903 -3.076,0 -5.553,-2.477 -5.553,-5.554 0,-0.45 0.075,-0.901 0.15,-1.351 l -17.561,-5.028 z m 1.876,6.529 c 0.901,-0.45 1.426,-1.351 1.426,-2.326 0,-1.426 -1.2,-2.627 -2.626,-2.627 H -28.52 Z M 3.001,2.402 c -1.727,13.434 -12.759,24.466 -26.117,26.193 -2.177,0.45 -3.827,-0.976 -4.053,-2.852 -0.075,-0.826 0.15,-1.651 0.601,-2.252 L -35.95,-9.306 c -0.074,-0.299 0,-0.6 0.225,-0.825 0.226,-0.225 0.526,-0.301 0.827,-0.225 l 32.795,9.306 c 0.676,-0.45 1.426,-0.676 2.252,-0.6 1.801,0.224 3.227,1.876 2.852,4.052" />
        </g>
        <g
           transform="translate(1110.3458,3356.3552)"
           id="g1252">
          <path
             id="path1254"
             style="fill:#000000;fill-opacity:1;fill-rule:nonzero;stroke:none"
             d="m 0,0 c -0.976,0 -1.727,0.75 -1.727,1.726 0,0.975 0.751,1.726 1.727,1.726 0.976,0 1.726,-0.751 1.726,-1.726 C 1.726,0.75 0.976,0 0,0 m 0,5.028 c -1.876,0 -3.302,-1.501 -3.302,-3.301 0,-1.877 1.501,-3.303 3.302,-3.303 1.801,0 3.302,1.501 3.302,3.303 C 3.377,3.527 1.876,5.028 0,5.028" />
        </g>
        <g
           transform="translate(1127.2316,3370.4636)"
           id="g1256">
          <path
             id="path1258"
             style="fill:#000000;fill-opacity:1;fill-rule:nonzero;stroke:none"
             d="m 0,0 c 0.525,0 0.976,-0.45 0.976,-0.976 0,-0.525 -0.451,-0.975 -0.976,-0.975 -0.525,0 -0.976,0.45 -0.976,0.975 C -0.976,-0.45 -0.525,0 0,0 m 0,-3.602 c 1.426,0 2.627,1.201 2.627,2.626 0,1.426 -1.201,2.627 -2.627,2.627 -1.426,0 -2.626,-1.201 -2.626,-2.627 -10e-4,-1.425 1.2,-2.626 2.626,-2.626" />
        </g>
        <g
           transform="translate(1118.6759,3366.2615)"
           id="g1260">
          <path
             id="path1262"
             style="fill:#000000;fill-opacity:1;fill-rule:nonzero;stroke:none"
             d="m 0,0 c -1.125,0 -2.101,0.9 -2.101,2.102 0,1.125 0.901,2.1 2.101,2.1 1.201,0 2.102,-0.9 2.102,-2.1 C 2.102,0.976 1.126,0 0,0 m 0,5.778 c -2.026,0 -3.677,-1.65 -3.677,-3.676 0,-2.027 1.651,-3.678 3.677,-3.678 2.026,0 3.678,1.651 3.678,3.678 0,2.026 -1.652,3.676 -3.678,3.676" />
        </g>
        <g
           transform="translate(1118.6759,3376.6931)"
           id="g1264">
          <path
             id="path1266"
             style="fill:#000000;fill-opacity:1;fill-rule:nonzero;stroke:none"
             d="m 0,0 c 0.976,0 1.802,-0.825 1.802,-1.801 0,-0.45 0.375,-0.826 0.825,-0.826 0.45,0 0.826,0.375 0.826,0.826 0,1.876 -1.501,3.452 -3.452,3.452 -0.45,0 -0.826,-0.375 -0.826,-0.826 C -0.825,0.375 -0.45,0 0,0" />
        </g>
        <g
           transform="translate(1116.7247,3362.7341)"
           id="g1268">
          <path
             id="path1270"
             style="fill:#000000;fill-opacity:1;fill-rule:nonzero;stroke:none"
             d="m 0,0 -1.576,-1.727 c -0.3,-0.299 -0.3,-0.825 0.075,-1.125 0.301,-0.3 0.826,-0.3 1.126,0.076 l 1.576,1.725 c 0.3,0.301 0.3,0.826 -0.075,1.126 C 0.825,0.3 0.3,0.3 0,0" />
        </g>
      </g>
    </g>
  </g>
</svg>
