<?xml version="1.0" encoding="UTF-8" standalone="no"?>
<svg
   xmlns:dc="http://purl.org/dc/elements/1.1/"
   xmlns:cc="http://creativecommons.org/ns#"
   xmlns:rdf="http://www.w3.org/1999/02/22-rdf-syntax-ns#"
   xmlns:svg="http://www.w3.org/2000/svg"
   xmlns="http://www.w3.org/2000/svg"
   id="svg3409"
   version="1.1"
   viewBox="0 0 15.999999 16.000001"
   height="16mm"
   width="16mm">
  <defs
     id="defs3403">
    <clipPath
       id="clipPath1282"
       clipPathUnits="userSpaceOnUse">
      <path
         id="path1280"
         d="M 0,4519.341 H 1280 V 0 H 0 Z" />
    </clipPath>
    <clipPath
       id="clipPath1124"
       clipPathUnits="userSpaceOnUse">
      <path
         id="path1122"
         d="M 0,4519.341 H 1280 V 0 H 0 Z" />
    </clipPath>
  </defs>
  <metadata
     id="metadata3406">
    <rdf:RDF>
      <cc:Work
         rdf:about="">
        <dc:format>image/svg+xml</dc:format>
        <dc:type
           rdf:resource="http://purl.org/dc/dcmitype/StillImage" />
        <dc:title></dc:title>
      </cc:Work>
    </rdf:RDF>
  </metadata>
  <g
     transform="translate(-56.599702,64.452307)"
     id="layer1">
    <g
       id="g1118"
       transform="matrix(0.35277777,0,0,-0.35277777,-137.28579,1132.5285)">
      <g
         clip-path="url(#clipPath1124)"
         id="g1120">
        <g
           transform="translate(580.7828,3381.6335)"
           id="g1126">
          <path
             id="path1128"
             style="fill:#000000;fill-opacity:1;fill-rule:nonzero;stroke:none"
             d="M 0,0 C 2.284,-0.278 4.56,1.168 4.541,2.846 2.756,3.184 0.53,1.808 0,0 m -2.228,1.331 c 1.537,1.03 1.793,4.058 0.485,5.309 C -3.061,5.745 -3.339,2.899 -2.228,1.331 m -9.3,-5.48 c -0.14,-0.387 -0.258,-0.647 -0.331,-0.922 -0.737,-2.767 -1.454,-5.541 -2.208,-8.301 -0.132,-0.482 0.035,-0.744 0.522,-1.002 0.514,-0.273 1.005,-0.596 1.497,-0.911 0.665,-0.427 0.892,-0.988 0.606,-1.457 -0.292,-0.481 -0.867,-0.547 -1.557,-0.114 -0.488,0.305 -0.933,0.681 -1.397,1.026 -0.636,-2.652 -1.117,-5.103 -1.154,-7.69 3.921,2.477 7.443,5.307 10.805,8.461 -0.247,0.2 -0.516,0.266 -0.743,0.403 -1.232,0.738 -2.461,1.481 -3.675,2.249 -0.856,0.541 -0.991,1.439 -0.23,1.696 0.325,0.109 0.879,0.02 1.222,-0.177 1.48,-0.841 2.921,-1.755 4.373,-2.647 0.305,-0.188 0.56,-0.357 0.834,-0.048 1.706,1.922 3.47,3.798 5.124,5.759 0.813,0.964 0.682,1.549 -0.256,2.735 -1.315,1.663 -3.037,2.88 -4.893,3.931 -1.467,0.832 -2.983,1.531 -4.624,1.808 -1.104,0.187 -1.955,0.004 -2.329,-0.994 -0.186,-0.496 -0.43,-0.97 -0.689,-1.43 -0.246,-0.439 -0.168,-0.715 0.396,-1.04 1.432,-0.829 2.847,-1.693 4.228,-2.603 0.305,-0.201 0.578,-0.659 0.614,-0.985 0.03,-0.264 -0.255,-0.664 -0.516,-0.72 -0.332,-0.071 -0.832,0.053 -1.171,0.251 -1.467,0.855 -2.902,1.768 -4.448,2.722 m 6.653,6.033 C -4.902,2.972 -5.034,4.07 -4.93,5.114 -4.774,6.691 -3.943,7.92 -2.692,8.861 -1.837,9.505 -1.259,9.38 -0.495,8.403 0.374,7.293 0.89,6.089 1.159,4.82 1.185,4.696 1.214,4.572 1.255,4.386 1.462,4.441 1.625,4.479 1.781,4.527 2.988,4.905 4.264,5.002 5.619,4.762 6.627,4.583 7.032,4.137 6.934,3.243 6.638,0.562 5.185,-1.199 2.377,-1.861 2.149,-1.915 1.921,-1.968 1.648,-2.031 2.29,-2.728 2.915,-3.328 3.434,-3.991 3.867,-4.546 4.252,-5.154 4.522,-5.772 4.964,-6.783 4.89,-7.727 4.339,-8.57 c -1.766,-2.709 -4.055,-4.998 -6.443,-7.201 -3.702,-3.415 -7.609,-6.62 -11.939,-9.381 -0.51,-0.326 -1.049,-0.62 -1.607,-0.88 -1.035,-0.484 -2.135,0.126 -2.101,1.251 0.057,1.919 0.177,3.837 0.46,5.704 0.919,6.064 2.209,12.006 4.418,17.621 0.285,0.722 0.643,1.41 0.967,2.114 0.908,1.977 2.406,2.283 4.684,1.857 0.807,-0.151 1.609,-0.429 2.347,-0.631" />
        </g>
        <g
           transform="translate(588.1447,3381.2361)"
           id="g1130">
          <path
             id="path1132"
             style="fill:#000000;fill-opacity:1;fill-rule:nonzero;stroke:none"
             d="m 0,0 c -0.486,-0.657 -1.069,-1.193 -1.654,-1.617 4.356,-6.21 4.508,-15.738 -2.049,-22.239 -7.321,-7.26 -17.856,-6.021 -23.54,-0.928 l -1.611,1.454 c -3.911,4.552 -5.476,9.681 -4.202,15.429 1.547,6.972 5.925,11.524 12.834,13.312 1.959,0.508 3.851,0.674 5.68,0.533 0.022,0.811 0.204,1.547 0.443,2.174 -0.624,0.06 -1.255,0.093 -1.896,0.094 -10.903,0.004 -19.714,-8.795 -19.718,-19.691 -0.005,-10.92 8.797,-19.716 19.732,-19.717 10.846,-10e-4 19.667,8.807 19.676,19.649 C 3.699,-7.229 2.328,-3.246 0,0" />
        </g>
      </g>
    </g>
  </g>
</svg>
