<?xml version="1.0" encoding="utf-8"?>
<!-- Generator: Adobe Illustrator 26.0.0, SVG Export Plug-In . SVG Version: 6.00 Build 0)  -->
<svg version="1.1" id="Capa_1" xmlns="http://www.w3.org/2000/svg" xmlns:xlink="http://www.w3.org/1999/xlink" x="0px" y="0px"
	 viewBox="0 0 104 62" style="enable-background:new 0 0 104 62;" xml:space="preserve">
<style type="text/css">
	.st0{fill:#CB1518;}
	.st1{fill:#FFE00A;}
	.st2{fill:none;stroke:#000000;stroke-width:1.5;stroke-linecap:round;stroke-linejoin:round;stroke-miterlimit:10;}
</style>
<g>
	<g>
		<g>
			<circle class="st0" cx="74.5" cy="30.5" r="28.8"/>
			<g>
				<path class="st1" d="M78.4,22.3l1.6,6.9c0.6,2.8,2.4,5.2,4.8,6.6l3.2,1.9l-3.2,1.9c-2.5,1.4-4.2,3.8-4.8,6.6l-1.6,6.9l-1.6-6.9
					c-0.6-2.8-2.4-5.2-4.8-6.6l-3.2-1.9l3.2-1.9c2.5-1.4,4.2-3.8,4.8-6.6L78.4,22.3z"/>
				<path class="st1" d="M70.4,19.5l0.5,2.2c0.2,0.9,0.8,1.7,1.6,2.1l1,0.6l-1,0.6c-0.8,0.5-1.4,1.2-1.6,2.1l-0.5,2.2l-0.5-2.2
					c-0.2-0.9-0.8-1.7-1.6-2.1l-1-0.6l1-0.6c0.8-0.5,1.4-1.2,1.6-2.1L70.4,19.5z"/>
				<path class="st1" d="M85.1,8.2l1.1,4.5c0.4,1.8,1.6,3.4,3.2,4.3l2.1,1.2l-2.1,1.2c-1.6,0.9-2.8,2.5-3.2,4.3l-1.1,4.5L84,23.9
					c-0.4-1.8-1.6-3.4-3.2-4.3l-2.1-1.2l2.1-1.2c1.6-0.9,2.8-2.5,3.2-4.3L85.1,8.2z"/>
			</g>
		</g>
	</g>
	<g>
		<path class="st2" d="M58.5,29.5c0,14.9-10.9,25.1-24.3,25.1S9.9,44.4,9.9,29.5C9.9,29.5,58.3,28.8,58.5,29.5z"/>
		<g>
			<path class="st2" d="M24.4,53.4c0,0,0.3-0.1-2.7,3.5c0,0-4.2,3.3,3.9,3.3h8.1"/>
			<path class="st2" d="M43.1,53.4c0,0-0.3-0.1,2.7,3.5c0,0,4.2,3.3-3.9,3.3h-8.1"/>
		</g>
		<path class="st2" d="M9.8,33.1H0.7c0,0,0,6.9,10.2,6.2"/>
		<path class="st2" d="M58.5,33.1h9.1c0,0,0,6.9-10.2,6.2"/>
		<g>
			<circle cx="17.6" cy="34.6" r="1.7"/>
			<circle cx="25.8" cy="34.6" r="1.7"/>
			<circle cx="34" cy="34.6" r="1.7"/>
			<circle cx="42.1" cy="34.6" r="1.7"/>
			<circle cx="29" cy="40.5" r="1.7"/>
			<circle cx="32.6" cy="45.4" r="1.7"/>
			<circle cx="26.3" cy="47" r="1.7"/>
			<circle cx="35.4" cy="50.5" r="1.7"/>
			<circle cx="21.8" cy="40.5" r="1.7"/>
			<circle cx="37.2" cy="40.5" r="1.7"/>
			<circle cx="41" cy="45.8" r="1.7"/>
			<circle cx="45.4" cy="40.5" r="1.7"/>
			<circle cx="50.3" cy="34.6" r="1.7"/>
		</g>
	</g>
</g>
</svg>