<?xml version="1.0" encoding="UTF-8" standalone="no"?>
<svg
   xmlns:dc="http://purl.org/dc/elements/1.1/"
   xmlns:cc="http://creativecommons.org/ns#"
   xmlns:rdf="http://www.w3.org/1999/02/22-rdf-syntax-ns#"
   xmlns:svg="http://www.w3.org/2000/svg"
   xmlns="http://www.w3.org/2000/svg"
   id="svg5079"
   version="1.1"
   viewBox="0 0 10.854743 10.920098"
   height="10.920098mm"
   width="10.854743mm">
  <defs
     id="defs5073" />
  <metadata
     id="metadata5076">
    <rdf:RDF>
      <cc:Work
         rdf:about="">
        <dc:format>image/svg+xml</dc:format>
        <dc:type
           rdf:resource="http://purl.org/dc/dcmitype/StillImage" />
        <dc:title></dc:title>
      </cc:Work>
    </rdf:RDF>
  </metadata>
  <g
     transform="translate(-257.64406,22.93624)"
     id="layer1">
    <g
       transform="matrix(0.35277777,0,0,-0.35277777,263.43783,-19.952798)"
       id="g458">
      <path
         id="path460"
         style="fill:#b30613;fill-opacity:1;fill-rule:nonzero;stroke:none"
         d="M 0,0 H -1.342 V 8.457 C -0.329,8.357 0.666,8.352 1.62,8.152 7.775,6.87 11.854,3.214 13.702,-2.789 c 2.525,-8.199 -2.635,-17.212 -10.923,-19.238 -8.487,-2.077 -16.753,2.898 -18.754,11.433 -1.213,5.183 0.058,9.848 3.541,13.89 0.206,0.24 0.43,0.519 0.715,0.115 0.224,-0.318 0.909,-0.446 0.325,-1.102 -6.897,-7.758 -3.405,-19.955 6.535,-22.881 7.458,-2.196 15.469,2.444 17.323,10.031 C 14.229,-3.314 10.408,3.777 3.396,6.221 2.505,6.531 1.547,6.65 0.621,6.859 0.158,6.964 -0.018,6.815 -0.01,6.311 0.017,4.424 0.001,2.537 0,0.65 Z" />
    </g>
    <g
       transform="matrix(0.35277777,0,0,-0.35277777,260.47847,-20.219815)"
       id="g462">
      <path
         id="path464"
         style="fill:#b30613;fill-opacity:1;fill-rule:nonzero;stroke:none"
         d="M 0,0 C 0.155,-0.094 0.316,-0.179 0.465,-0.282 3.129,-2.114 5.789,-3.951 8.454,-5.781 9.064,-6.2 9.506,-6.717 9.55,-7.489 9.604,-8.442 9.101,-9.168 8.174,-9.489 7.222,-9.82 6.25,-9.552 5.686,-8.739 4.894,-7.6 4.14,-6.434 3.368,-5.279 2.312,-3.698 1.253,-2.118 0.197,-0.536 0.099,-0.387 0.016,-0.226 -0.074,-0.07 -0.05,-0.047 -0.024,-0.023 0,0" />
    </g>
  </g>
</svg>