<?xml version="1.0" encoding="UTF-8" standalone="no"?>
<svg
   xmlns:dc="http://purl.org/dc/elements/1.1/"
   xmlns:cc="http://creativecommons.org/ns#"
   xmlns:rdf="http://www.w3.org/1999/02/22-rdf-syntax-ns#"
   xmlns:svg="http://www.w3.org/2000/svg"
   xmlns="http://www.w3.org/2000/svg"
   id="svg4455"
   version="1.1"
   viewBox="0 0 14.103534 9.4107752"
   height="9.4107752mm"
   width="14.103534mm">
  <defs
     id="defs4449" />
  <metadata
     id="metadata4452">
    <rdf:RDF>
      <cc:Work
         rdf:about="">
        <dc:format>image/svg+xml</dc:format>
        <dc:type
           rdf:resource="http://purl.org/dc/dcmitype/StillImage" />
        <dc:title></dc:title>
      </cc:Work>
    </rdf:RDF>
  </metadata>
  <g
     transform="translate(-290.03752,108.36015)"
     id="layer1">
    <g
       transform="matrix(0.35277777,0,0,-0.35277777,298.61425,-107.12429)"
       id="g454">
      <path
         id="path456"
         style="fill:#b30613;fill-opacity:1;fill-rule:nonzero;stroke:none"
         d="m 0,0 c -0.021,-0.059 -0.042,-0.116 -0.062,-0.175 0.6,-0.675 0.901,-1.476 0.467,-2.276 -0.344,-0.635 -0.57,-1.194 -0.378,-1.914 0.038,-0.145 -0.225,-0.489 -0.409,-0.544 -0.307,-0.092 -0.49,0.147 -0.556,0.473 -0.062,0.306 -0.14,0.62 -0.281,0.894 -0.207,0.402 -0.178,0.681 0.24,0.916 0.42,0.236 0.622,0.619 0.529,1.105 -0.101,0.528 -0.442,0.823 -0.978,0.876 -0.351,0.036 -0.526,0.214 -0.563,0.571 C -2.042,0.404 -2.299,0.738 -2.773,0.88 -3.235,1.018 -3.609,0.857 -3.894,0.5 -4.13,0.201 -4.379,0.212 -4.729,0.288 -5.041,0.355 -5.432,0.334 -5.718,0.201 -6.378,-0.105 -6.502,-0.091 -6.742,0.592 -6.97,1.239 -7.578,1.613 -8.19,1.385 c -0.54,-0.2 -0.829,-0.083 -1.096,0.423 -0.276,0.522 -0.783,0.748 -1.38,0.668 -0.612,-0.083 -1.088,-0.422 -1.197,-1.028 -0.107,-0.583 -0.385,-0.763 -0.939,-0.832 -0.823,-0.1 -1.208,-1.016 -0.793,-1.637 0.474,0.116 0.925,0.249 1.385,0.332 0.32,0.057 0.617,-0.123 0.59,-0.435 -0.019,-0.2 -0.29,-0.495 -0.494,-0.542 -1.145,-0.259 -1.414,-0.526 -1.688,-1.703 -0.044,-0.19 -0.318,-0.432 -0.511,-0.455 -0.33,-0.041 -0.496,0.232 -0.456,0.56 0.036,0.293 0.056,0.616 0.193,0.865 0.247,0.448 0.038,0.674 -0.33,0.789 -0.27,0.083 -0.609,0.129 -0.861,0.037 -0.489,-0.178 -0.742,-0.038 -0.972,0.396 -0.298,0.561 -0.883,0.837 -1.455,0.728 -0.622,-0.119 -1.074,-0.472 -1.19,-1.112 -0.086,-0.476 -0.302,-0.664 -0.791,-0.72 -0.934,-0.11 -1.329,-0.961 -0.919,-1.798 0.107,-0.217 0.151,-0.5 0.121,-0.741 -0.097,-0.826 -0.054,-0.897 0.75,-0.897 h 32.16 0.626 l -0.137,0.112 c 0.187,0.36 0.345,0.741 0.57,1.077 0.4,0.595 0.427,1.341 0.018,1.926 -0.429,0.612 -1.194,0.864 -1.911,0.63 -0.679,-0.22 -0.718,-0.203 -1.009,0.469 C 9.811,-0.848 9.21,-0.506 8.518,-0.675 8.031,-0.794 7.724,-0.668 7.467,-0.238 7.01,0.527 6.258,0.801 5.431,0.496 4.952,0.319 4.676,0.403 4.496,0.901 4.242,1.604 3.632,1.968 2.988,1.853 2.279,1.727 1.832,1.153 1.836,0.375 1.84,-0.328 1.579,-0.462 0.918,-0.171 0.642,-0.048 0.308,-0.053 0,0 m -24.312,-5.729 h 2.398 c -0.1,0.6 -0.152,1.145 -0.286,1.67 -0.285,1.128 0.296,2.306 1.4,2.665 0.319,0.104 0.468,0.266 0.605,0.56 0.657,1.416 2.515,1.899 3.679,0.868 0.538,-0.476 1.052,-0.556 1.709,-0.528 0.088,0.727 0.323,1.449 1.025,1.769 0.636,0.289 1.002,0.74 1.393,1.282 0.893,1.234 2.675,1.247 3.73,0.121 0.114,-0.122 0.315,-0.251 0.464,-0.239 0.998,0.083 1.736,-0.317 2.216,-1.076 0.457,0 0.855,-0.006 1.252,0.004 0.116,0.003 0.246,0.022 0.343,0.078 1.492,0.847 2.579,0.537 3.282,-0.876 0.637,0.18 1.26,0.356 1.97,0.557 C 1.013,1.361 1.189,1.774 1.475,2.09 2.482,3.208 4.203,3.119 5.095,1.909 5.286,1.649 5.457,1.555 5.779,1.589 6.724,1.691 7.484,1.321 8.112,0.623 8.23,0.493 8.444,0.365 8.607,0.373 c 0.921,0.042 1.629,-0.309 2.186,-1.033 0.099,-0.129 0.329,-0.241 0.486,-0.227 1.122,0.1 2.013,-0.298 2.612,-1.236 0.601,-0.942 0.572,-1.921 -0.004,-2.884 -0.116,-0.191 -0.194,-0.404 -0.336,-0.709 h 2.107 c 0.061,-1.548 -0.209,-2.985 -0.698,-4.382 -1.3,-3.705 -3.791,-6.431 -7.064,-8.5 -2.067,-1.305 -4.306,-2.205 -6.691,-2.736 -0.388,-0.086 -0.573,-0.229 -0.524,-0.655 0.04,-0.347 0.004,-0.702 -0.001,-1.053 -0.001,-0.033 -0.02,-0.065 -0.04,-0.131 h -9.909 c 0,0.355 -0.038,0.72 0.009,1.074 0.068,0.508 -0.138,0.683 -0.622,0.792 -3.092,0.703 -5.916,1.995 -8.396,3.982 -3.004,2.406 -5.082,5.409 -5.784,9.255 -0.136,0.752 -0.166,1.522 -0.25,2.341" />
    </g>
  </g>
</svg>