<?xml version="1.0" encoding="utf-8"?>
<!-- Generator: Adobe Illustrator 26.0.0, SVG Export Plug-In . SVG Version: 6.00 Build 0)  -->
<svg version="1.1" id="Capa_1" xmlns="http://www.w3.org/2000/svg" xmlns:xlink="http://www.w3.org/1999/xlink" x="0px" y="0px"
	 viewBox="0 0 104 62" style="enable-background:new 0 0 104 62;" xml:space="preserve">
<style type="text/css">
	.st0{fill:#CB1518;}
	.st1{fill:#FFE00A;}
	.st2{fill:none;stroke:#000000;stroke-width:1.2576;stroke-linecap:round;stroke-linejoin:round;stroke-miterlimit:10;}
</style>
<g>
	<g>
		<g>
			<circle class="st0" cx="74.7" cy="30.1" r="28.8"/>
			<g>
				<path class="st1" d="M78.5,21.8l1.6,6.9c0.6,2.8,2.4,5.2,4.8,6.6l3.2,1.9L85,39.2c-2.5,1.4-4.2,3.8-4.8,6.6l-1.6,6.9l-1.6-6.9
					c-0.6-2.8-2.4-5.2-4.8-6.6l-3.2-1.9l3.2-1.9c2.5-1.4,4.2-3.8,4.8-6.6L78.5,21.8z"/>
				<path class="st1" d="M70.6,19.1l0.5,2.2c0.2,0.9,0.8,1.7,1.6,2.1l1,0.6l-1,0.6c-0.8,0.5-1.4,1.2-1.6,2.1l-0.5,2.2L70,26.8
					c-0.2-0.9-0.8-1.7-1.6-2.1l-1-0.6l1-0.6c0.8-0.5,1.4-1.2,1.6-2.1L70.6,19.1z"/>
				<path class="st1" d="M85.2,7.8l1.1,4.5c0.4,1.8,1.6,3.4,3.2,4.3l2.1,1.2l-2.1,1.2c-1.6,0.9-2.8,2.5-3.2,4.3L85.2,28l-1.1-4.5
					c-0.4-1.8-1.6-3.4-3.2-4.3l-2.1-1.2l2.1-1.2c1.6-0.9,2.8-2.5,3.2-4.3L85.2,7.8z"/>
			</g>
		</g>
	</g>
	<g>
		<g>
			<path class="st2" d="M61.8,31.1c0-0.2-0.1-0.3-0.1-0.5c-0.5-1.9-1.8-3-3.8-3c-6.4,0-12.7,0-19.1,0c-6.4,0-12.7,0-19.1,0
				c-0.4,0-0.9,0-1.3,0.1c-1.6,0.4-2.4,1.7-2.4,3.5c0,8.2,0,16.3,0,24.5c0.1,0.3,0.2,0.7,0.1,1.1c0.5,1.6,1.6,2.4,3.3,2.4
				c1.1,0,2.2,0,3.4,0c0.4,0,0.6,0.2,0.6,0.6c0,0.1,0,0.2,0,0.3c0,0.4,0.2,0.6,0.6,0.6c1.3,0,2.6,0,3.9,0c0.6,0,0.6-0.1,0.6-0.6
				c0.5,0,0.9-0.4,0.9-0.9c6.3,0,12.7,0,19,0c0,0.5,0.4,0.9,0.9,1c0,0.5,0.2,0.6,0.6,0.6c1.2,0,2.4,0,3.6,0c0.8,0,0.8,0,0.8-0.8
				c0-0.6,0.1-0.7,0.7-0.7c1.1,0,2.3,0,3.4,0c0.3-0.1,0.5-0.1,0.8-0.1c1.6-0.4,2.5-1.7,2.5-3.4C61.8,47.5,61.8,39.3,61.8,31.1z
				 M50.1,52.8c0,0.6-0.1,1.1-0.6,1.4c-0.3,0.2-0.7,0.2-1.1,0.2c-3.4,0-6.8,0-10.2,0c-1,0-1.9,0-2.9,0c-4.3,0-8.6,0-13,0
				c-0.4,0-0.9,0-1.3-0.2c-0.1-0.1-0.2-0.2-0.3-0.3c-0.2-0.4-0.2-0.8-0.2-1.2c0-6.3,0-12.6,0-18.9c0-0.2,0-0.4,0-0.6
				c0.1-0.5,0.4-0.9,0.9-1c0.2-0.1,0.5-0.1,0.8-0.1l26.1,0c0.1,0,0.2,0,0.3,0c0.8,0,1.3,0.5,1.4,1.4c0,0.6,0,1.2,0,1.8
				C50.1,41.2,50.1,47,50.1,52.8z M56.6,51.4c-1.4,0-2.7-1.2-2.7-2.7c0-1.5,1.2-2.7,2.7-2.7c1.5,0,2.7,1.2,2.7,2.7
				C59.3,50.2,58,51.4,56.6,51.4z"/>
		</g>
		<path class="st2" d="M56.5,39.5c-0.7,0-1.5,0-2.2,0c-0.5,0-0.8-0.2-0.8-0.8c0-0.4,0-0.9,0-1.3c0-0.5,0.2-0.7,0.7-0.7
			c1.6,0,3.1,0,4.7,0c0.5,0,0.7,0.2,0.7,0.7c0,2.4,0.3,2.1-1.9,2.1C57.3,39.5,56.9,39.5,56.5,39.5z"/>
	</g>
</g>
</svg>