<svg width="104" height="83" viewBox="0 0 104 83" fill="none" xmlns="http://www.w3.org/2000/svg">
<circle cx="51.5" cy="41.5" r="40.5" fill="#F4858E" stroke="white" stroke-width="2"/>
<g clip-path="url(#clip0_30_279)">
<path d="M44.5374 67.3H63.3374" stroke="white" stroke-width="1.5" stroke-miterlimit="10" stroke-linecap="round" stroke-linejoin="round"/>
<path d="M53.7374 58.1C53.7374 58.1 51.3374 58.8 51.1374 61.4C50.9374 64 53.1374 64 53.9374 63.9C55.1374 63.8 56.2374 62.4 55.2374 61.1C54.2374 59.8 53.4374 58.8 53.7374 58.1Z" stroke="white" stroke-width="1.5" stroke-miterlimit="10" stroke-linecap="round" stroke-linejoin="round"/>
<path d="M43.8374 58.3C43.8374 58.3 42.7374 60 44.2374 62.4C45.7374 64.8 47.2374 63.8 47.6374 63.4C48.3374 62.7 48.1374 61 46.7374 60.3C45.3374 59.6 44.1374 59.1 43.8374 58.3Z" stroke="white" stroke-width="1.5" stroke-miterlimit="10" stroke-linecap="round" stroke-linejoin="round"/>
<path d="M62.8374 58.3C62.8374 58.3 63.9374 60 62.4374 62.4C60.9374 64.8 59.4374 63.8 59.0374 63.4C58.3374 62.7 58.5374 61 59.9374 60.3C61.3374 59.6 62.6374 59.1 62.8374 58.3Z" stroke="white" stroke-width="1.5" stroke-miterlimit="10" stroke-linecap="round" stroke-linejoin="round"/>
<path d="M52.5374 28C52.5374 28 52.4374 28 52.2374 28C52.0374 28 51.9374 28 51.9374 28C48.7374 28 30.0374 28.2 30.0374 28C30.0374 28 30.0374 43.4 30.0374 49.6C30.0374 55.8 40.4374 55.4 52.1374 55.3C63.8374 55.3 74.2374 55.7 74.2374 49.6C74.2374 43.4 74.2374 28 74.2374 28C74.3374 28.2 55.7374 28 52.5374 28Z" stroke="white" stroke-width="1.5" stroke-miterlimit="10" stroke-linecap="round" stroke-linejoin="round"/>
<path d="M74.5374 30H79.5374C79.5374 30 80.3374 35.2 74.5374 35.6" stroke="white" stroke-width="1.5" stroke-miterlimit="10" stroke-linecap="round" stroke-linejoin="round"/>
<path d="M30.0374 30H25.0374C25.0374 30 24.2374 35.2 30.0374 35.6" stroke="white" stroke-width="1.5" stroke-miterlimit="10" stroke-linecap="round" stroke-linejoin="round"/>
</g>
<defs>
<clipPath id="clip0_30_279">
<rect width="104" height="62" fill="white" transform="translate(0 5)"/>
</clipPath>
</defs>
</svg>
