<?xml version="1.0" encoding="utf-8"?>
<!-- Generator: Adobe Illustrator 26.0.0, SVG Export Plug-In . SVG Version: 6.00 Build 0)  -->
<svg version="1.1" id="Layer_1" xmlns="http://www.w3.org/2000/svg" xmlns:xlink="http://www.w3.org/1999/xlink" x="0px" y="0px"
	 viewBox="0 0 522.3 271.6" style="enable-background:new 0 0 522.3 271.6;" xml:space="preserve">
<style type="text/css">
	.st0{fill:#DD0B18;stroke:#AF9970;stroke-width:4.3813;stroke-miterlimit:10;}
	.st1{clip-path:url(#SVGID_00000181062706293706202910000015231681657361804463_);}
	.st2{fill:none;stroke:#DD0B18;stroke-width:4.3813;stroke-miterlimit:10;}
	.st3{fill:#FFFFFF;}
	.st4{fill:#FFE807;}
	.st5{fill:#1E1E1C;}
</style>
<g>
	<g>
		<path class="st0" d="M75,241.7h376.5c15.7,0,28.5-12.7,28.5-28.5v-104c0-15.7-12.7-28.5-28.5-28.5H75c-15.7,0-28.5,12.7-28.5,28.5
			v104C46.6,229,59.3,241.7,75,241.7z"/>
		<g>
			<g>
				<defs>
					<rect id="SVGID_1_" x="0" y="56.1" width="522.3" height="215.5"/>
				</defs>
				<clipPath id="SVGID_00000159435224286434361540000001023885452656099469_">
					<use xlink:href="#SVGID_1_"  style="overflow:visible;"/>
				</clipPath>
				<g style="clip-path:url(#SVGID_00000159435224286434361540000001023885452656099469_);">
					<g>
						<g>
							<g>
								<path class="st2" d="M132.3,133.4c-1.4,22.7-3.7,42.1-6.8,58.1c-3.1,16-7,29-11.6,39.1c-4.7,10.1-10.1,17.4-16.3,22
									s-13.2,6.9-20.9,6.9c-4,0-7.3-0.7-10-2.1c-2.7-1.4-4.9-3.2-6.5-5.4c-1.7-2.2-2.8-4.7-3.5-7.4s-1.1-5.4-1.1-8.1
									c0-0.7,0.2-1.1,0.7-1.4c0.4-0.2,0.9-0.1,1.4,0.4c0.6,0.6,1.1,1,1.7,1.5c0.6,0.4,1.2,0.8,2,1.1s1.7,0.6,2.7,0.7
									c1,0.2,2.3,0.2,3.7,0.2c3.8,0,7.6-1.1,11.4-3.2s7.4-5.1,11-8.8c3.6-3.7,7-8.1,10.3-13.1c3.3-5,6.3-10.4,9.2-16.2
									c2.8-5.7,5.4-11.7,7.8-17.9c2.3-6.2,4.3-12.3,6-18.4c1.6-6.1,2.9-12,3.8-17.6c0.9-5.7,1.3-10.9,1.3-15.6
									c0-1.4-0.2-2.7-0.7-3.8c-0.4-1.1-1-2-1.7-2.8c-0.7-0.8-1.5-1.4-2.3-2s-1.7-1-2.6-1.3c-0.9-0.4-1.7-0.7-2.4-0.9
									s-1.4-0.4-1.9-0.5c-0.4-0.1-0.7-0.3-0.9-0.6c-0.2-0.2-0.3-0.5-0.3-0.7c0-0.2,0.1-0.5,0.4-0.7c0.2-0.2,0.6-0.3,1-0.3h32
									c0.6,0,1.2,0.1,1.7,0.4c0.5,0.3,0.8,0.7,1,1.2c0.3,1.1,0.7,2.7,1.2,4.7c0.5,2,1.1,4.2,1.8,6.7c0.7,2.5,1.4,5.2,2.1,8
									c0.7,2.8,1.4,5.6,2.1,8.4c0.7,2.8,1.4,5.5,2.1,8.1c0.7,2.6,1.3,5,1.8,7.1c0.5,2.1,1,3.8,1.3,5.2c0.3,1.4,0.6,2.2,0.6,2.6
									c0.1,0.2,0.2,0.4,0.4,0.4c0.2,0,0.3-0.1,0.4-0.3s0.4-1,1-2.4c0.6-1.4,1.2-3.1,2.1-5.1s1.8-4.4,2.8-7s2.1-5.4,3.3-8.2
									s2.2-5.7,3.4-8.5s2.2-5.6,3.2-8.1c1-2.5,1.9-4.8,2.7-6.8s1.4-3.6,1.9-4.7c0.5-1.1,1.4-1.7,2.8-1.7h30.3c0.5,0,0.8,0.1,1,0.3
									s0.4,0.4,0.4,0.7c0,0.2-0.1,0.5-0.3,0.8c-0.2,0.2-0.5,0.4-0.9,0.4c-0.6,0.1-1.4,0.3-2.6,0.6s-2.4,0.9-3.6,1.6
									c-1.2,0.8-2.3,1.8-3.2,3.2c-0.9,1.3-1.4,3.1-1.4,5.2v67.1c0,2.1,0.5,3.9,1.4,5.2c0.9,1.3,2,2.4,3.2,3.2s2.4,1.3,3.6,1.6
									c1.2,0.3,2.1,0.5,2.6,0.6c0.4,0.1,0.7,0.2,0.9,0.5s0.3,0.5,0.3,0.7c0,0.2-0.1,0.5-0.4,0.7s-0.6,0.3-1,0.3h-43.8
									c-0.5,0-0.8-0.1-1-0.3c-0.2-0.2-0.4-0.4-0.4-0.7c0-0.2,0.1-0.5,0.3-0.7c0.2-0.2,0.5-0.4,0.9-0.5c0.6-0.1,1.4-0.3,2.6-0.6
									c1.2-0.3,2.4-0.8,3.6-1.6s2.3-1.8,3.2-3.2s1.4-3.1,1.4-5.2v-63.6c0-0.3-0.1-0.5-0.4-0.6s-0.5,0.1-0.7,0.5
									c-0.1,0.2-0.4,1-1,2.5c-0.6,1.5-1.4,3.5-2.3,5.9c-1,2.4-2.1,5.3-3.4,8.4c-1.3,3.2-2.6,6.6-4.1,10.1c-1.4,3.6-2.9,7.2-4.4,11
									s-2.9,7.4-4.4,10.9s-2.8,6.9-4,10.1c-1.3,3.2-2.4,5.9-3.3,8.3s-1.7,4.3-2.3,5.7c-0.6,1.4-0.9,2.2-1,2.3
									c-0.3,0.5-0.6,0.7-1.1,0.7c-0.4,0-0.8-0.2-1-0.7c-0.1-0.1-0.3-1.2-0.9-3.3c-0.6-2.1-1.3-4.9-2.1-8.2
									c-0.9-3.4-1.9-7.2-2.9-11.5c-1.1-4.3-2.2-8.7-3.4-13.2c-1.1-4.5-2.3-8.9-3.4-13.2s-2.1-8.2-2.9-11.7
									c-0.9-3.4-1.6-6.3-2.2-8.4s-0.9-3.4-1-3.6c-0.1-0.4-0.4-0.6-0.7-0.6C132.5,132.6,132.3,132.9,132.3,133.4z"/>
								<path class="st3" d="M132.3,133.4c-1.4,22.7-3.7,42.1-6.8,58.1c-3.1,16-7,29-11.6,39.1c-4.7,10.1-10.1,17.4-16.3,22
									s-13.2,6.9-20.9,6.9c-4,0-7.3-0.7-10-2.1c-2.7-1.4-4.9-3.2-6.5-5.4c-1.7-2.2-2.8-4.7-3.5-7.4s-1.1-5.4-1.1-8.1
									c0-0.7,0.2-1.1,0.7-1.4c0.4-0.2,0.9-0.1,1.4,0.4c0.6,0.6,1.1,1,1.7,1.5c0.6,0.4,1.2,0.8,2,1.1s1.7,0.6,2.7,0.7
									c1,0.2,2.3,0.2,3.7,0.2c3.8,0,7.6-1.1,11.4-3.2s7.4-5.1,11-8.8c3.6-3.7,7-8.1,10.3-13.1c3.3-5,6.3-10.4,9.2-16.2
									c2.8-5.7,5.4-11.7,7.8-17.9c2.3-6.2,4.3-12.3,6-18.4c1.6-6.1,2.9-12,3.8-17.6c0.9-5.7,1.3-10.9,1.3-15.6
									c0-1.4-0.2-2.7-0.7-3.8c-0.4-1.1-1-2-1.7-2.8c-0.7-0.8-1.5-1.4-2.3-2s-1.7-1-2.6-1.3c-0.9-0.4-1.7-0.7-2.4-0.9
									s-1.4-0.4-1.9-0.5c-0.4-0.1-0.7-0.3-0.9-0.6c-0.2-0.2-0.3-0.5-0.3-0.7c0-0.2,0.1-0.5,0.4-0.7c0.2-0.2,0.6-0.3,1-0.3h32
									c0.6,0,1.2,0.1,1.7,0.4c0.5,0.3,0.8,0.7,1,1.2c0.3,1.1,0.7,2.7,1.2,4.7c0.5,2,1.1,4.2,1.8,6.7c0.7,2.5,1.4,5.2,2.1,8
									c0.7,2.8,1.4,5.6,2.1,8.4c0.7,2.8,1.4,5.5,2.1,8.1c0.7,2.6,1.3,5,1.8,7.1c0.5,2.1,1,3.8,1.3,5.2c0.3,1.4,0.6,2.2,0.6,2.6
									c0.1,0.2,0.2,0.4,0.4,0.4c0.2,0,0.3-0.1,0.4-0.3s0.4-1,1-2.4c0.6-1.4,1.2-3.1,2.1-5.1s1.8-4.4,2.8-7s2.1-5.4,3.3-8.2
									s2.2-5.7,3.4-8.5s2.2-5.6,3.2-8.1c1-2.5,1.9-4.8,2.7-6.8s1.4-3.6,1.9-4.7c0.5-1.1,1.4-1.7,2.8-1.7h30.3c0.5,0,0.8,0.1,1,0.3
									s0.4,0.4,0.4,0.7c0,0.2-0.1,0.5-0.3,0.8c-0.2,0.2-0.5,0.4-0.9,0.4c-0.6,0.1-1.4,0.3-2.6,0.6s-2.4,0.9-3.6,1.6
									c-1.2,0.8-2.3,1.8-3.2,3.2c-0.9,1.3-1.4,3.1-1.4,5.2v67.1c0,2.1,0.5,3.9,1.4,5.2c0.9,1.3,2,2.4,3.2,3.2s2.4,1.3,3.6,1.6
									c1.2,0.3,2.1,0.5,2.6,0.6c0.4,0.1,0.7,0.2,0.9,0.5s0.3,0.5,0.3,0.7c0,0.2-0.1,0.5-0.4,0.7s-0.6,0.3-1,0.3h-43.8
									c-0.5,0-0.8-0.1-1-0.3c-0.2-0.2-0.4-0.4-0.4-0.7c0-0.2,0.1-0.5,0.3-0.7c0.2-0.2,0.5-0.4,0.9-0.5c0.6-0.1,1.4-0.3,2.6-0.6
									c1.2-0.3,2.4-0.8,3.6-1.6s2.3-1.8,3.2-3.2s1.4-3.1,1.4-5.2v-63.6c0-0.3-0.1-0.5-0.4-0.6s-0.5,0.1-0.7,0.5
									c-0.1,0.2-0.4,1-1,2.5c-0.6,1.5-1.4,3.5-2.3,5.9c-1,2.4-2.1,5.3-3.4,8.4c-1.3,3.2-2.6,6.6-4.1,10.1c-1.4,3.6-2.9,7.2-4.4,11
									s-2.9,7.4-4.4,10.9s-2.8,6.9-4,10.1c-1.3,3.2-2.4,5.9-3.3,8.3s-1.7,4.3-2.3,5.7c-0.6,1.4-0.9,2.2-1,2.3
									c-0.3,0.5-0.6,0.7-1.1,0.7c-0.4,0-0.8-0.2-1-0.7c-0.1-0.1-0.3-1.2-0.9-3.3c-0.6-2.1-1.3-4.9-2.1-8.2
									c-0.9-3.4-1.9-7.2-2.9-11.5c-1.1-4.3-2.2-8.7-3.4-13.2c-1.1-4.5-2.3-8.9-3.4-13.2s-2.1-8.2-2.9-11.7
									c-0.9-3.4-1.6-6.3-2.2-8.4s-0.9-3.4-1-3.6c-0.1-0.4-0.4-0.6-0.7-0.6C132.5,132.6,132.3,132.9,132.3,133.4z"/>
								<path class="st3" d="M284.5,201.2c0.6-0.1,1.1,0,1.5,0.4c0.4,0.4,0.4,0.9,0.1,1.5c-0.3,0.5-0.7,1.1-1.3,1.8
									c-0.6,0.7-1.4,1.3-2.5,1.9s-2.3,1.1-3.8,1.5c-1.5,0.4-3.2,0.6-5.2,0.6c-2.8,0-5.1-0.6-7-1.7s-3.2-2.4-4-3.9
									c-0.2-0.4-0.5-0.5-0.8-0.5s-0.6,0.2-0.9,0.4c-0.1,0.1-0.6,0.5-1.3,1.1c-0.7,0.6-1.7,1.3-3,2s-2.9,1.4-4.7,1.9
									c-1.8,0.6-3.9,0.9-6.3,0.9c-4.1,0-7.5-0.6-10.3-1.7c-2.8-1.1-5-2.6-6.7-4.4s-3-3.8-3.7-6.1c-0.8-2.3-1.1-4.5-1.1-6.8
									c0-3.6,1-6.8,3-9.5c2-2.7,4.7-4.7,7.9-6c1.7-0.7,3.6-1.2,5.5-1.5s3.8-0.6,5.7-0.9c1.9-0.3,3.7-0.7,5.5-1.2
									c1.8-0.5,3.5-1.3,5.1-2.4c1.7-1.1,2.9-2.6,3.5-4.4s1-3.7,1-5.7c0-1.5-0.2-2.9-0.6-4.2c-0.4-1.4-0.9-2.5-1.6-3.5
									c-0.7-1-1.5-1.8-2.5-2.4s-2-0.9-3-0.9c-2,0-3.4,0.5-4.3,1.5c-0.9,1-1.6,2.2-2.2,3.6c-0.5,1.4-1,2.9-1.5,4.4
									c-0.5,1.5-1.2,2.9-2.2,3.9c-0.8,0.9-1.9,1.5-3.2,2s-2.5,0.6-3.7,0.6c-1.2,0-2.3-0.2-3.3-0.6c-1-0.4-1.8-1-2.5-1.7
									c-0.7-0.7-1.2-1.5-1.5-2.5s-0.5-1.9-0.5-3c0-1.4,0.3-2.8,1-4.2c0.7-1.4,1.9-2.7,3.7-3.8s4.1-2.1,7.1-2.8
									c3-0.7,6.8-1.1,11.3-1.1c5.1,0,9.4,0.5,13,1.5c3.6,1,6.5,2.5,8.8,4.5s3.9,4.4,4.9,7.3s1.5,6.2,1.5,9.9
									c0,4.4-0.1,8.6-0.4,12.5s-0.5,7.3-0.6,10.3s-0.1,5.5,0.2,7.4c0.2,1.9,0.9,3.1,1.9,3.6c0.5,0.2,1,0.3,1.7,0.3
									C283,201.4,283.7,201.4,284.5,201.2z M260.7,170.6c0-0.3-0.1-0.5-0.3-0.6s-0.4,0-0.6,0.2c-0.4,0.4-0.7,0.8-1,1.2
									s-0.7,0.8-1.2,1.3c-0.9,0.9-1.8,1.8-2.7,2.6c-0.9,0.8-1.8,1.6-2.8,2.4c-0.9,0.7-1.8,1.5-2.7,2.2c-0.9,0.7-1.7,1.5-2.5,2.4
									c-1.2,1.4-2.1,2.9-2.6,4.5c-0.6,1.6-0.9,3.4-0.9,5.2c0,1.2,0.2,2.5,0.5,3.7c0.4,1.3,0.9,2.4,1.7,3.4s1.7,1.8,2.9,2.4
									s2.6,0.9,4.2,0.9s3-0.3,4-1c1-0.7,1.8-1.5,2.4-2.5s1-1.9,1.2-2.9c0.2-1,0.3-1.8,0.3-2.3L260.7,170.6L260.7,170.6z"/>
								<path class="st3" d="M332.9,144.1c1.9,0,3.5,0.2,4.9,0.7s2.4,1.1,3.2,1.9c0.8,0.8,1.4,1.7,1.8,2.8c0.4,1.1,0.5,2.2,0.5,3.4
									c0,2.2-0.7,3.9-2.1,5.1c-1.4,1.2-3.3,1.9-5.6,1.9c-1.8,0-3.2-0.3-4.2-1s-1.9-1.3-2.6-2.1c-0.7-0.8-1.4-1.4-2-2.1
									s-1.3-1-2.2-1c-0.8,0-1.6,0.3-2.5,0.8c-0.9,0.5-1.7,1.5-2.5,3c-0.8,1.5-1.4,3.5-1.9,6c-0.5,2.6-0.8,5.9-0.8,9.9v23.8
									c0,1.8,0.3,3.3,0.9,4.3s1.3,1.9,2.1,2.4c0.8,0.6,1.6,0.9,2.4,1.1s1.4,0.3,1.7,0.4c0.4,0.1,0.6,0.2,0.8,0.4
									c0.2,0.2,0.2,0.4,0.2,0.6s-0.2,0.4-0.4,0.6s-0.5,0.3-0.9,0.3h-6.9h-0.6h-17.3h-0.6h-6.9c-0.4,0-0.6-0.1-0.9-0.3
									c-0.2-0.2-0.3-0.4-0.4-0.6c0-0.2,0-0.4,0.2-0.6c0.2-0.2,0.4-0.4,0.8-0.4c0.4,0,0.9-0.2,1.7-0.4s1.6-0.6,2.4-1.1
									s1.5-1.4,2.1-2.4c0.6-1.1,0.9-2.5,0.9-4.3v-38.7c0-0.6-0.3-1-0.8-1.1c-0.1,0-0.4-0.1-1-0.2c-0.6-0.1-1.2-0.3-2-0.5
									c-0.7-0.2-1.4-0.3-2-0.5s-1-0.2-1.1-0.3c-0.6-0.1-0.9-0.4-0.9-0.9c0-0.5,0.3-0.8,1-1c1.8-0.4,3.7-1,5.8-1.7
									c2.1-0.7,4.2-1.5,6.3-2.4s4.1-1.9,6.1-2.9c2-1,3.7-2.1,5.3-3.1c0.4-0.3,0.8-0.4,1.3-0.3c0.4,0.1,0.6,0.4,0.6,1v9.8
									c1.6-3.5,3.8-6.1,6.5-7.9C326.4,144.9,329.5,144.1,332.9,144.1z"/>
								<path class="st3" d="M375.4,182.2v14.6c0,1.8,0.4,3.3,1.1,4.4s1.6,2,2.5,2.6s1.9,1.1,2.7,1.3c0.9,0.2,1.5,0.4,1.9,0.4
									c0.4,0.1,0.6,0.2,0.8,0.4c0.2,0.2,0.2,0.4,0.2,0.6s-0.2,0.4-0.4,0.6s-0.5,0.3-0.9,0.3h-34.5c-0.4,0-0.6-0.1-0.9-0.3
									c-0.2-0.2-0.3-0.4-0.4-0.6c0-0.2,0-0.4,0.2-0.6c0.2-0.2,0.4-0.4,0.8-0.4c0.4,0,1-0.2,1.9-0.4c0.9-0.2,1.8-0.7,2.7-1.3
									c0.9-0.6,1.8-1.5,2.5-2.6c0.7-1.1,1.1-2.6,1.1-4.4v-38.2c0-0.6-0.3-1-0.8-1.1c-0.1,0-0.4-0.1-1-0.2c-0.6-0.1-1.2-0.3-2-0.5
									c-0.7-0.2-1.4-0.3-2-0.5s-1-0.2-1.1-0.3c-0.6-0.1-0.9-0.4-0.9-0.9c0-0.5,0.3-0.8,1-1c1.8-0.4,3.7-1,5.8-1.7
									c2.1-0.7,4.2-1.5,6.3-2.4s4.1-1.9,6.1-2.9c2-1,3.7-2.1,5.3-3.1c0.4-0.3,0.8-0.4,1.3-0.3c0.4,0.1,0.6,0.4,0.6,1L375.4,182.2"
									/>
								<path class="st3" d="M447.2,201.2c0.6-0.1,1.1,0,1.5,0.4s0.4,0.9,0.1,1.5c-0.3,0.5-0.7,1.1-1.3,1.8
									c-0.6,0.7-1.4,1.3-2.5,1.9s-2.3,1.1-3.8,1.5c-1.5,0.4-3.2,0.6-5.2,0.6c-2.8,0-5.1-0.6-7-1.7s-3.2-2.4-4-3.9
									c-0.2-0.4-0.5-0.5-0.8-0.5s-0.6,0.2-0.9,0.4c-0.1,0.1-0.6,0.5-1.3,1.1c-0.7,0.6-1.7,1.3-3,2s-2.9,1.4-4.7,1.9
									c-1.8,0.6-3.9,0.9-6.3,0.9c-4.1,0-7.5-0.6-10.3-1.7c-2.8-1.1-5-2.6-6.7-4.4s-3-3.8-3.7-6.1s-1.1-4.5-1.1-6.8
									c0-3.6,1-6.8,3-9.5c2-2.7,4.7-4.7,7.9-6c1.7-0.7,3.6-1.2,5.5-1.5s3.8-0.6,5.7-0.9c1.9-0.3,3.7-0.7,5.5-1.2s3.5-1.3,5.1-2.4
									c1.7-1.1,2.9-2.6,3.5-4.4s1-3.7,1-5.7c0-1.5-0.2-2.9-0.6-4.2c-0.4-1.4-0.9-2.5-1.6-3.5c-0.7-1-1.5-1.8-2.5-2.4s-2-0.9-3-0.9
									c-2,0-3.4,0.5-4.3,1.5c-0.9,1-1.6,2.2-2.2,3.6c-0.5,1.4-1,2.9-1.5,4.4c-0.5,1.5-1.2,2.9-2.2,3.9c-0.8,0.9-1.9,1.5-3.2,2
									s-2.5,0.6-3.7,0.6c-1.2,0-2.3-0.2-3.3-0.6c-1-0.4-1.8-1-2.5-1.7c-0.7-0.7-1.2-1.5-1.5-2.5s-0.5-1.9-0.5-3
									c0-1.4,0.3-2.8,1-4.2c0.7-1.4,1.9-2.7,3.7-3.8s4.1-2.1,7.1-2.8c3-0.7,6.8-1.1,11.3-1.1c5.1,0,9.4,0.5,13,1.5
									s6.5,2.5,8.8,4.5c2.3,2,3.9,4.4,4.9,7.3s1.5,6.2,1.5,9.9c0,4.4-0.1,8.6-0.4,12.5s-0.5,7.3-0.6,10.3s-0.1,5.5,0.2,7.4
									c0.2,1.9,0.9,3.1,1.9,3.6c0.5,0.2,1,0.3,1.7,0.3C445.7,201.4,446.4,201.4,447.2,201.2z M423.4,170.6c0-0.3-0.1-0.5-0.3-0.6
									s-0.4,0-0.6,0.2c-0.4,0.4-0.7,0.8-1,1.2c-0.3,0.4-0.7,0.8-1.2,1.3c-0.9,0.9-1.8,1.8-2.7,2.6c-0.9,0.8-1.8,1.6-2.7,2.4
									c-0.9,0.7-1.8,1.5-2.7,2.2c-0.9,0.7-1.7,1.5-2.5,2.4c-1.2,1.4-2.1,2.9-2.6,4.5c-0.6,1.6-0.9,3.4-0.9,5.2
									c0,1.2,0.2,2.5,0.5,3.7c0.4,1.3,0.9,2.4,1.7,3.4c0.8,1,1.7,1.8,2.9,2.4c1.2,0.6,2.6,0.9,4.2,0.9s3-0.3,4-1
									c1-0.7,1.8-1.5,2.4-2.5s1-1.9,1.2-2.9c0.2-1,0.3-1.8,0.3-2.3L423.4,170.6L423.4,170.6z"/>
							</g>
						</g>
						<g>
							<g>
								<g>
									<path class="st4" d="M364.8,108.5l1.8,7.7c0.7,3.1,2.6,5.7,5.4,7.3l3.6,2.1l-3.6,2.1c-2.7,1.6-4.7,4.3-5.4,7.3l-1.8,7.7
										L363,135c-0.7-3.1-2.6-5.7-5.4-7.3l-3.6-2.1l3.6-2.1c2.7-1.6,4.7-4.2,5.4-7.3L364.8,108.5z"/>
									<path class="st4" d="M357,100.4l0.7,3.2c0.3,1.3,1.1,2.4,2.2,3.1l1.5,0.9l-1.5,0.9c-1.1,0.7-2,1.8-2.2,3.1l-0.7,3.2
										l-0.7-3.2c-0.3-1.3-1.1-2.4-2.2-3.1l-1.5-0.9l1.5-0.9c1.1-0.7,2-1.8,2.2-3.1L357,100.4z"/>
									<path class="st4" d="M373.3,91.1l1.2,5c0.5,2,1.7,3.8,3.5,4.8l2.3,1.4l-2.3,1.4c-1.8,1.1-3,2.8-3.5,4.8l-1.2,5l-1.2-5
										c-0.5-2-1.7-3.8-3.5-4.8l-2.3-1.4l2.3-1.4c1.8-1.1,3-2.8,3.5-4.8L373.3,91.1z"/>
								</g>
							</g>
						</g>
					</g>
				</g>
			</g>
		</g>
	</g>
	<g>
		
			<image style="overflow:visible;enable-background:new    ;" width="206" height="109" xlink:href="EA8FAA6D.png"  transform="matrix(0.9908 0 0 0.9908 19.8992 6.050492e-06)">
		</image>
	</g>
	<g>
		<path class="st5" d="M62.7,62.4l11.6-23.2c0.1-0.3,0.4-0.4,0.7-0.4s0.5,0.1,0.7,0.4l11.6,23.2c0.1,0.2,0.2,0.5,0.1,0.6
			s-0.3,0.3-0.6,0.3h-3.1c-0.3,0-0.6-0.1-0.9-0.3s-0.5-0.4-0.6-0.7l-1-2c-0.1-0.2-0.3-0.5-0.6-0.6c-0.3-0.2-0.6-0.3-0.9-0.3h-9.5
			c-0.3,0-0.6,0.1-0.9,0.3s-0.5,0.4-0.6,0.7l-1,2c-0.1,0.3-0.3,0.5-0.6,0.7c-0.3,0.2-0.6,0.3-0.9,0.3h-3c-0.3,0-0.5-0.1-0.6-0.3
			C62.6,62.9,62.6,62.7,62.7,62.4z M72.5,55.4h5c0.3,0,0.5-0.1,0.6-0.3c0.1-0.2,0.1-0.4,0-0.7l-2.6-5.5c-0.1-0.3-0.3-0.4-0.4-0.4
			s-0.3,0.1-0.4,0.4l-2.7,5.5c-0.1,0.3-0.1,0.5,0,0.7C72,55.3,72.2,55.4,72.5,55.4z"/>
		<path class="st5" d="M92.4,63.3h-2.7c-0.3,0-0.5-0.1-0.7-0.3s-0.3-0.5-0.3-0.7V39.8c0-0.3,0.1-0.5,0.3-0.7
			c0.2-0.2,0.4-0.3,0.7-0.3h10.1c1.2,0,2.4,0.2,3.5,0.6c1,0.5,1.9,1,2.6,1.8c0.4,0.4,0.7,0.8,1,1.2s0.5,0.9,0.7,1.4
			c0.4,1,0.6,2.2,0.6,3.4c0,1.9-0.5,3.5-1.4,4.9c-0.7,1.1-1.6,1.9-2.8,2.5c-0.2,0.1-0.4,0.3-0.5,0.5c-0.1,0.2,0,0.5,0.2,0.7
			c0.8,1.1,1.6,2.2,2.4,3.2c0.8,1,1.5,2,2.3,3.2c0.2,0.2,0.2,0.5,0.1,0.7s-0.3,0.4-0.6,0.4h-3.4c-0.3,0-0.6-0.1-0.9-0.2
			c-0.3-0.2-0.6-0.3-0.7-0.6c-0.4-0.5-0.8-1-1.1-1.5s-0.7-1-1.1-1.5l-2.2-3.1c-0.2-0.2-0.4-0.5-0.7-0.6c-0.3-0.2-0.6-0.2-0.9-0.2
			h-2.6c-0.3,0-0.5,0.1-0.7,0.3c-0.2,0.2-0.3,0.5-0.3,0.7v5.7c0,0.3-0.1,0.5-0.3,0.7C92.9,63.2,92.7,63.3,92.4,63.3z M94.4,51.4h5.4
			c0.4,0,0.8-0.1,1.3-0.3c0.5-0.2,0.9-0.4,1.2-0.8s0.6-0.8,0.9-1.3c0.2-0.5,0.3-1.1,0.3-1.8c0-0.4,0-0.8-0.1-1.3
			c0-0.2-0.1-0.5-0.2-0.7s-0.2-0.5-0.3-0.7c-0.3-0.5-0.6-0.8-1.1-1.1c-0.5-0.3-1.2-0.5-2-0.5h-5.4c-0.3,0-0.5,0.1-0.7,0.3
			c-0.2,0.2-0.3,0.5-0.3,0.7v6.3c0,0.3,0.1,0.5,0.3,0.7C93.9,51.3,94.1,51.4,94.4,51.4z"/>
		<path class="st5" d="M115.9,63.3h-2.6c-0.3,0-0.5-0.1-0.7-0.3c-0.2-0.2-0.3-0.5-0.3-0.7V39.8c0-0.3,0.1-0.5,0.3-0.7
			s0.4-0.3,0.7-0.3h10.1c1.2,0,2.4,0.2,3.5,0.6c1,0.5,1.9,1,2.7,1.8c0.4,0.4,0.7,0.8,1,1.2s0.5,0.9,0.7,1.4c0.4,1,0.6,2.2,0.6,3.4
			c0,1.9-0.5,3.5-1.4,4.9c-0.7,1.1-1.6,1.9-2.8,2.5c-0.2,0.1-0.4,0.3-0.5,0.5c-0.1,0.2,0,0.5,0.2,0.7c0.8,1.1,1.6,2.2,2.4,3.2
			c0.8,1,1.5,2,2.3,3.2c0.2,0.2,0.2,0.5,0.1,0.7s-0.3,0.4-0.6,0.4h-3.4c-0.3,0-0.6-0.1-0.9-0.2c-0.3-0.2-0.6-0.3-0.7-0.6
			c-0.4-0.5-0.8-1-1.1-1.5s-0.7-1-1.1-1.5l-2.2-3.1c-0.2-0.2-0.4-0.5-0.7-0.6c-0.3-0.2-0.6-0.2-0.9-0.2h-2.6c-0.3,0-0.5,0.1-0.7,0.3
			c-0.2,0.2-0.3,0.5-0.3,0.7v5.7c0,0.3-0.1,0.5-0.3,0.7C116.4,63.2,116.1,63.3,115.9,63.3z M117.9,51.4h5.4c0.4,0,0.8-0.1,1.3-0.3
			c0.5-0.2,0.9-0.4,1.2-0.8s0.6-0.8,0.9-1.3c0.2-0.5,0.3-1.1,0.3-1.8c0-0.4,0-0.8-0.1-1.3c0-0.2-0.1-0.5-0.2-0.7s-0.2-0.5-0.3-0.7
			c-0.3-0.5-0.6-0.8-1.1-1.1c-0.5-0.3-1.2-0.5-2-0.5h-5.4c-0.3,0-0.5,0.1-0.7,0.3c-0.2,0.2-0.3,0.5-0.3,0.7v6.3
			c0,0.3,0.1,0.5,0.3,0.7C117.4,51.3,117.6,51.4,117.9,51.4z"/>
		<path class="st5" d="M147.1,63.8c-1.8,0-3.4-0.3-4.9-1s-2.9-1.6-4-2.7c-1.1-1.2-2.1-2.5-2.7-4s-1-3.2-1-5c0-1.8,0.3-3.4,1-5
			c0.7-1.5,1.6-2.9,2.7-4.1c1.1-1.2,2.5-2.1,4-2.7s3.2-1,4.9-1c1.8,0,3.4,0.3,5,1c1.5,0.7,2.9,1.6,4,2.7c1.1,1.2,2.1,2.5,2.7,4.1
			c0.7,1.6,1,3.2,1,5c0,1.8-0.3,3.4-1,5s-1.6,2.9-2.7,4c-1.1,1.2-2.5,2.1-4,2.7C150.6,63.5,148.9,63.8,147.1,63.8z M147.1,42.7
			c-1.1,0-2.2,0.2-3.1,0.7s-1.8,1.1-2.5,1.8c-0.7,0.8-1.3,1.7-1.7,2.7s-0.6,2.1-0.6,3.2c0,1.1,0.2,2.2,0.6,3.2s1,1.9,1.7,2.7
			c0.7,0.8,1.6,1.4,2.5,1.8s2,0.7,3.1,0.7c1.1,0,2.2-0.2,3.1-0.7s1.8-1.1,2.5-1.8c0.7-0.8,1.3-1.7,1.7-2.7s0.6-2.1,0.6-3.2
			c0-1.1-0.2-2.2-0.6-3.2c-0.4-1-1-1.9-1.7-2.7c-0.7-0.8-1.6-1.4-2.5-1.8C149.3,42.9,148.3,42.7,147.1,42.7z"/>
		<path class="st5" d="M169.6,59h11.2c0.3,0,0.5,0.1,0.7,0.3c0.2,0.2,0.3,0.5,0.3,0.7v2.3c0,0.3-0.1,0.5-0.3,0.7s-0.4,0.3-0.7,0.3
			h-19.8c-0.3,0-0.5-0.2-0.6-0.4c-0.1-0.3,0-0.6,0.1-0.8L173.4,44c0.2-0.2,0.2-0.5,0.1-0.6c-0.1-0.2-0.3-0.2-0.6-0.2h-10.6
			c-0.3,0-0.5-0.1-0.7-0.3c-0.2-0.2-0.3-0.5-0.3-0.7v-2.2c0-0.3,0.1-0.5,0.3-0.7s0.4-0.3,0.7-0.3h19.2c0.3,0,0.5,0.2,0.6,0.4
			c0.1,0.3,0,0.6-0.1,0.8l-12.9,18.1c-0.2,0.2-0.2,0.5-0.1,0.6C169.1,58.9,169.3,59,169.6,59z"/>
	</g>
</g>
</svg>