<svg width="523" height="272" viewBox="0 0 523 272" fill="none" xmlns="http://www.w3.org/2000/svg">
<path d="M75 241.7H451.5C467.2 241.7 480 229 480 213.2V109.2C480 93.5 467.3 80.7 451.5 80.7H75C59.3 80.7 46.5 93.4 46.5 109.2V213.2C46.6 229 59.3 241.7 75 241.7Z" fill="#F4858E" stroke="#DD0B18" stroke-width="4.3813" stroke-miterlimit="10"/>
<path d="M127.884 134.721C126.407 158.533 123.982 178.884 120.713 195.668C117.444 212.452 113.331 226.089 108.48 236.684C103.524 247.279 97.8291 254.937 91.2909 259.762C84.7527 264.587 77.3709 267 69.2509 267C65.0327 267 61.5527 266.266 58.7055 264.797C55.8582 263.328 53.5382 261.44 51.8509 259.132C50.0582 256.825 48.8982 254.202 48.16 251.37C47.4218 248.538 47 245.705 47 242.873C47 242.139 47.2109 241.719 47.7382 241.404C48.16 241.195 48.6873 241.3 49.2145 241.824C49.8473 242.453 50.3745 242.873 51.0073 243.398C51.64 243.817 52.2727 244.237 53.1164 244.551C53.96 244.866 54.9091 245.181 55.9636 245.286C57.0182 245.496 58.3891 245.496 59.8655 245.496C63.8727 245.496 67.88 244.342 71.8873 242.139C75.8945 239.936 79.6909 236.789 83.4873 232.908C87.2836 229.026 90.8691 224.411 94.3491 219.166C97.8291 213.921 100.993 208.256 104.051 202.172C107.004 196.193 109.745 189.899 112.276 183.395C114.702 176.891 116.811 170.492 118.604 164.093C120.291 157.694 121.662 151.505 122.611 145.631C123.56 139.651 123.982 134.197 123.982 129.266C123.982 127.798 123.771 126.434 123.244 125.28C122.822 124.126 122.189 123.182 121.451 122.343C120.713 121.504 119.869 120.874 119.025 120.245C118.182 119.616 117.233 119.196 116.284 118.881C115.335 118.462 114.491 118.147 113.753 117.937C113.015 117.727 112.276 117.518 111.749 117.413C111.327 117.308 111.011 117.098 110.8 116.783C110.589 116.574 110.484 116.259 110.484 116.049C110.484 115.839 110.589 115.525 110.905 115.315C111.116 115.105 111.538 115 111.96 115H145.705C146.338 115 146.971 115.105 147.498 115.42C148.025 115.734 148.342 116.154 148.553 116.678C148.869 117.832 149.291 119.511 149.818 121.609C150.345 123.707 150.978 126.014 151.716 128.637C152.455 131.259 153.193 134.092 153.931 137.029C154.669 139.966 155.407 142.903 156.145 145.841C156.884 148.778 157.622 151.61 158.36 154.337C159.098 157.065 159.731 159.582 160.258 161.785C160.785 163.988 161.313 165.772 161.629 167.24C161.945 168.709 162.262 169.548 162.262 169.968C162.367 170.177 162.473 170.387 162.684 170.387C162.895 170.387 163 170.282 163.105 170.072C163.211 169.863 163.527 169.023 164.16 167.555C164.793 166.086 165.425 164.303 166.375 162.205C167.324 160.107 168.273 157.589 169.327 154.862C170.382 152.135 171.542 149.197 172.807 146.26C174.073 143.323 175.127 140.281 176.393 137.344C177.658 134.406 178.713 131.469 179.767 128.847C180.822 126.224 181.771 123.812 182.615 121.714C183.458 119.616 184.091 117.937 184.618 116.783C185.145 115.629 186.095 115 187.571 115H219.524C220.051 115 220.367 115.105 220.578 115.315C220.789 115.525 221 115.734 221 116.049C221 116.259 220.895 116.574 220.684 116.888C220.473 117.098 220.156 117.308 219.735 117.308C219.102 117.413 218.258 117.623 216.993 117.937C215.727 118.252 214.462 118.881 213.196 119.616C211.931 120.455 210.771 121.504 209.822 122.972C208.873 124.336 208.345 126.224 208.345 128.427V198.815C208.345 201.018 208.873 202.906 209.822 204.27C210.771 205.634 211.931 206.787 213.196 207.627C214.462 208.466 215.727 208.99 216.993 209.305C218.258 209.62 219.207 209.83 219.735 209.934C220.156 210.039 220.473 210.144 220.684 210.459C220.895 210.774 221 210.983 221 211.193C221 211.403 220.895 211.718 220.578 211.928C220.262 212.137 219.945 212.242 219.524 212.242H173.335C172.807 212.242 172.491 212.137 172.28 211.928C172.069 211.718 171.858 211.508 171.858 211.193C171.858 210.983 171.964 210.669 172.175 210.459C172.385 210.249 172.702 210.039 173.124 209.934C173.756 209.83 174.6 209.62 175.865 209.305C177.131 208.99 178.396 208.466 179.662 207.627C180.927 206.787 182.087 205.738 183.036 204.27C183.985 202.801 184.513 201.018 184.513 198.815V132.099C184.513 131.784 184.407 131.574 184.091 131.469C183.775 131.364 183.564 131.574 183.353 131.994C183.247 132.204 182.931 133.043 182.298 134.616C181.665 136.19 180.822 138.288 179.873 140.805C178.818 143.323 177.658 146.365 176.287 149.617C174.916 152.974 173.545 156.54 171.964 160.212C170.487 163.988 168.905 167.765 167.324 171.751C165.742 175.737 164.265 179.513 162.684 183.185C161.102 186.856 159.731 190.423 158.465 193.78C157.095 197.137 155.935 199.969 154.985 202.487C154.036 205.004 153.193 206.997 152.56 208.466C151.927 209.934 151.611 210.774 151.505 210.879C151.189 211.403 150.873 211.613 150.345 211.613C149.924 211.613 149.502 211.403 149.291 210.879C149.185 210.774 148.975 209.62 148.342 207.417C147.709 205.214 146.971 202.277 146.127 198.815C145.178 195.248 144.124 191.262 143.069 186.752C141.909 182.241 140.749 177.625 139.484 172.905C138.324 168.184 137.058 163.569 135.898 159.058C134.738 154.547 133.684 150.456 132.84 146.785C131.891 143.218 131.153 140.176 130.52 137.973C129.887 135.77 129.571 134.406 129.465 134.197C129.36 133.777 129.044 133.567 128.727 133.567C128.095 133.882 127.884 134.197 127.884 134.721Z" fill="white"/>
<path d="M284.5 201.2C285.1 201.1 285.6 201.2 286 201.6C286.4 202 286.4 202.5 286.1 203.1C285.8 203.6 285.4 204.2 284.8 204.9C284.2 205.6 283.4 206.2 282.3 206.8C281.2 207.4 280 207.9 278.5 208.3C277 208.7 275.3 208.9 273.3 208.9C270.5 208.9 268.2 208.3 266.3 207.2C264.4 206.1 263.1 204.8 262.3 203.3C262.1 202.9 261.8 202.8 261.5 202.8C261.2 202.8 260.9 203 260.6 203.2C260.5 203.3 260 203.7 259.3 204.3C258.6 204.9 257.6 205.6 256.3 206.3C255 207 253.4 207.7 251.6 208.2C249.8 208.8 247.7 209.1 245.3 209.1C241.2 209.1 237.8 208.5 235 207.4C232.2 206.3 230 204.8 228.3 203C226.6 201.2 225.3 199.2 224.6 196.9C223.8 194.6 223.5 192.4 223.5 190.1C223.5 186.5 224.5 183.3 226.5 180.6C228.5 177.9 231.2 175.9 234.4 174.6C236.1 173.9 238 173.4 239.9 173.1C241.8 172.8 243.7 172.5 245.6 172.2C247.5 171.9 249.3 171.5 251.1 171C252.9 170.5 254.6 169.7 256.2 168.6C257.9 167.5 259.1 166 259.7 164.2C260.3 162.4 260.7 160.5 260.7 158.5C260.7 157 260.5 155.6 260.1 154.3C259.7 152.9 259.2 151.8 258.5 150.8C257.8 149.8 257 149 256 148.4C255 147.8 254 147.5 253 147.5C251 147.5 249.6 148 248.7 149C247.8 150 247.1 151.2 246.5 152.6C246 154 245.5 155.5 245 157C244.5 158.5 243.8 159.9 242.8 160.9C242 161.8 240.9 162.4 239.6 162.9C238.3 163.4 237.1 163.5 235.9 163.5C234.7 163.5 233.6 163.3 232.6 162.9C231.6 162.5 230.8 161.9 230.1 161.2C229.4 160.5 228.9 159.7 228.6 158.7C228.3 157.7 228.1 156.8 228.1 155.7C228.1 154.3 228.4 152.9 229.1 151.5C229.8 150.1 231 148.8 232.8 147.7C234.6 146.6 236.9 145.6 239.9 144.9C242.9 144.2 246.7 143.8 251.2 143.8C256.3 143.8 260.6 144.3 264.2 145.3C267.8 146.3 270.7 147.8 273 149.8C275.3 151.8 276.9 154.2 277.9 157.1C278.9 160 279.4 163.3 279.4 167C279.4 171.4 279.3 175.6 279 179.5C278.7 183.4 278.5 186.8 278.4 189.8C278.3 192.8 278.3 195.3 278.6 197.2C278.8 199.1 279.5 200.3 280.5 200.8C281 201 281.5 201.1 282.2 201.1C283 201.4 283.7 201.4 284.5 201.2ZM260.7 170.6C260.7 170.3 260.6 170.1 260.4 170C260.2 169.9 260 170 259.8 170.2C259.4 170.6 259.1 171 258.8 171.4C258.5 171.8 258.1 172.2 257.6 172.7C256.7 173.6 255.8 174.5 254.9 175.3C254 176.1 253.1 176.9 252.1 177.7C251.2 178.4 250.3 179.2 249.4 179.9C248.5 180.6 247.7 181.4 246.9 182.3C245.7 183.7 244.8 185.2 244.3 186.8C243.7 188.4 243.4 190.2 243.4 192C243.4 193.2 243.6 194.5 243.9 195.7C244.3 197 244.8 198.1 245.6 199.1C246.4 200.1 247.3 200.9 248.5 201.5C249.7 202.1 251.1 202.4 252.7 202.4C254.3 202.4 255.7 202.1 256.7 201.4C257.7 200.7 258.5 199.9 259.1 198.9C259.7 197.9 260.1 197 260.3 196C260.5 195 260.6 194.2 260.6 193.7L260.7 170.6Z" fill="white"/>
<path d="M332.9 144.1C334.8 144.1 336.4 144.3 337.8 144.8C339.2 145.3 340.2 145.9 341 146.7C341.8 147.5 342.4 148.4 342.8 149.5C343.2 150.6 343.3 151.7 343.3 152.9C343.3 155.1 342.6 156.8 341.2 158C339.8 159.2 337.9 159.9 335.6 159.9C333.8 159.9 332.4 159.6 331.4 158.9C330.4 158.2 329.5 157.6 328.8 156.8C328.1 156 327.4 155.4 326.8 154.7C326.2 154 325.5 153.7 324.6 153.7C323.8 153.7 323 154 322.1 154.5C321.2 155 320.4 156 319.6 157.5C318.8 159 318.2 161 317.7 163.5C317.2 166.1 316.9 169.4 316.9 173.4V197.2C316.9 199 317.2 200.5 317.8 201.5C318.4 202.5 319.1 203.4 319.9 203.9C320.7 204.5 321.5 204.8 322.3 205C323.1 205.2 323.7 205.3 324 205.4C324.4 205.5 324.6 205.6 324.8 205.8C325 206 325 206.2 325 206.4C325 206.6 324.8 206.8 324.6 207C324.4 207.2 324.1 207.3 323.7 207.3H316.8H316.2H298.9H298.3H291.4C291 207.3 290.8 207.2 290.5 207C290.3 206.8 290.2 206.6 290.1 206.4C290.1 206.2 290.1 206 290.3 205.8C290.5 205.6 290.7 205.4 291.1 205.4C291.5 205.4 292 205.2 292.8 205C293.6 204.8 294.4 204.4 295.2 203.9C296 203.4 296.7 202.5 297.3 201.5C297.9 200.4 298.2 199 298.2 197.2V158.5C298.2 157.9 297.9 157.5 297.4 157.4C297.3 157.4 297 157.3 296.4 157.2C295.8 157.1 295.2 156.9 294.4 156.7C293.7 156.5 293 156.4 292.4 156.2C291.8 156 291.4 156 291.3 155.9C290.7 155.8 290.4 155.5 290.4 155C290.4 154.5 290.7 154.2 291.4 154C293.2 153.6 295.1 153 297.2 152.3C299.3 151.6 301.4 150.8 303.5 149.9C305.6 149 307.6 148 309.6 147C311.6 146 313.3 144.9 314.9 143.9C315.3 143.6 315.7 143.5 316.2 143.6C316.6 143.7 316.8 144 316.8 144.6V154.4C318.4 150.9 320.6 148.3 323.3 146.5C326.4 144.9 329.5 144.1 332.9 144.1Z" fill="white"/>
<path d="M375.4 182.2V196.8C375.4 198.6 375.8 200.1 376.5 201.2C377.2 202.3 378.1 203.2 379 203.8C379.9 204.4 380.9 204.9 381.7 205.1C382.6 205.3 383.2 205.5 383.6 205.5C384 205.6 384.2 205.7 384.4 205.9C384.6 206.1 384.6 206.3 384.6 206.5C384.6 206.7 384.4 206.9 384.2 207.1C384 207.3 383.7 207.4 383.3 207.4H348.8C348.4 207.4 348.2 207.3 347.9 207.1C347.7 206.9 347.6 206.7 347.5 206.5C347.5 206.3 347.5 206.1 347.7 205.9C347.9 205.7 348.1 205.5 348.5 205.5C348.9 205.5 349.5 205.3 350.4 205.1C351.3 204.9 352.2 204.4 353.1 203.8C354 203.2 354.9 202.3 355.6 201.2C356.3 200.1 356.7 198.6 356.7 196.8V158.6C356.7 158 356.4 157.6 355.9 157.5C355.8 157.5 355.5 157.4 354.9 157.3C354.3 157.2 353.7 157 352.9 156.8C352.2 156.6 351.5 156.5 350.9 156.3C350.3 156.1 349.9 156.1 349.8 156C349.2 155.9 348.9 155.6 348.9 155.1C348.9 154.6 349.2 154.3 349.9 154.1C351.7 153.7 353.6 153.1 355.7 152.4C357.8 151.7 359.9 150.9 362 150C364.1 149.1 366.1 148.1 368.1 147.1C370.1 146.1 371.8 145 373.4 144C373.8 143.7 374.2 143.6 374.7 143.7C375.1 143.8 375.3 144.1 375.3 144.7L375.4 182.2Z" fill="white"/>
<path d="M447.2 201.2C447.8 201.1 448.3 201.2 448.7 201.6C449.1 202 449.1 202.5 448.8 203.1C448.5 203.6 448.1 204.2 447.5 204.9C446.9 205.6 446.1 206.2 445 206.8C443.9 207.4 442.7 207.9 441.2 208.3C439.7 208.7 438 208.9 436 208.9C433.2 208.9 430.9 208.3 429 207.2C427.1 206.1 425.8 204.8 425 203.3C424.8 202.9 424.5 202.8 424.2 202.8C423.9 202.8 423.6 203 423.3 203.2C423.2 203.3 422.7 203.7 422 204.3C421.3 204.9 420.3 205.6 419 206.3C417.7 207 416.1 207.7 414.3 208.2C412.5 208.8 410.4 209.1 408 209.1C403.9 209.1 400.5 208.5 397.7 207.4C394.9 206.3 392.7 204.8 391 203C389.3 201.2 388 199.2 387.3 196.9C386.6 194.6 386.2 192.4 386.2 190.1C386.2 186.5 387.2 183.3 389.2 180.6C391.2 177.9 393.9 175.9 397.1 174.6C398.8 173.9 400.7 173.4 402.6 173.1C404.5 172.8 406.4 172.5 408.3 172.2C410.2 171.9 412 171.5 413.8 171C415.6 170.5 417.3 169.7 418.9 168.6C420.6 167.5 421.8 166 422.4 164.2C423 162.4 423.4 160.5 423.4 158.5C423.4 157 423.2 155.6 422.8 154.3C422.4 152.9 421.9 151.8 421.2 150.8C420.5 149.8 419.7 149 418.7 148.4C417.7 147.8 416.7 147.5 415.7 147.5C413.7 147.5 412.3 148 411.4 149C410.5 150 409.8 151.2 409.2 152.6C408.7 154 408.2 155.5 407.7 157C407.2 158.5 406.5 159.9 405.5 160.9C404.7 161.8 403.6 162.4 402.3 162.9C401 163.4 399.8 163.5 398.6 163.5C397.4 163.5 396.3 163.3 395.3 162.9C394.3 162.5 393.5 161.9 392.8 161.2C392.1 160.5 391.6 159.7 391.3 158.7C391 157.7 390.8 156.8 390.8 155.7C390.8 154.3 391.1 152.9 391.8 151.5C392.5 150.1 393.7 148.8 395.5 147.7C397.3 146.6 399.6 145.6 402.6 144.9C405.6 144.2 409.4 143.8 413.9 143.8C419 143.8 423.3 144.3 426.9 145.3C430.5 146.3 433.4 147.8 435.7 149.8C438 151.8 439.6 154.2 440.6 157.1C441.6 160 442.1 163.3 442.1 167C442.1 171.4 442 175.6 441.7 179.5C441.4 183.4 441.2 186.8 441.1 189.8C441 192.8 441 195.3 441.3 197.2C441.5 199.1 442.2 200.3 443.2 200.8C443.7 201 444.2 201.1 444.9 201.1C445.7 201.4 446.4 201.4 447.2 201.2ZM423.4 170.6C423.4 170.3 423.3 170.1 423.1 170C422.9 169.9 422.7 170 422.5 170.2C422.1 170.6 421.8 171 421.5 171.4C421.2 171.8 420.8 172.2 420.3 172.7C419.4 173.6 418.5 174.5 417.6 175.3C416.7 176.1 415.8 176.9 414.9 177.7C414 178.4 413.1 179.2 412.2 179.9C411.3 180.6 410.5 181.4 409.7 182.3C408.5 183.7 407.6 185.2 407.1 186.8C406.5 188.4 406.2 190.2 406.2 192C406.2 193.2 406.4 194.5 406.7 195.7C407.1 197 407.6 198.1 408.4 199.1C409.2 200.1 410.1 200.9 411.3 201.5C412.5 202.1 413.9 202.4 415.5 202.4C417.1 202.4 418.5 202.1 419.5 201.4C420.5 200.7 421.3 199.9 421.9 198.9C422.5 197.9 422.9 197 423.1 196C423.3 195 423.4 194.2 423.4 193.7V170.6Z" fill="white"/>
<path d="M364.8 108.5L366.6 116.2C367.3 119.3 369.2 121.9 372 123.5L375.6 125.6L372 127.7C369.3 129.3 367.3 132 366.6 135L364.8 142.7L363 135C362.3 131.9 360.4 129.3 357.6 127.7L354 125.6L357.6 123.5C360.3 121.9 362.3 119.3 363 116.2L364.8 108.5Z" fill="#FFE807"/>
<path d="M357 100.4L357.7 103.6C358 104.9 358.8 106 359.9 106.7L361.4 107.6L359.9 108.5C358.8 109.2 357.9 110.3 357.7 111.6L357 114.8L356.3 111.6C356 110.3 355.2 109.2 354.1 108.5L352.6 107.6L354.1 106.7C355.2 106 356.1 104.9 356.3 103.6L357 100.4Z" fill="#FFE807"/>
<path d="M373.3 91.1L374.5 96.1C375 98.1 376.2 99.9 378 100.9L380.3 102.3L378 103.7C376.2 104.8 375 106.5 374.5 108.5L373.3 113.5L372.1 108.5C371.6 106.5 370.4 104.7 368.6 103.7L366.3 102.3L368.6 100.9C370.4 99.8 371.6 98.1 372.1 96.1L373.3 91.1Z" fill="#FFE807"/>
<path d="M62.7 62.4L74.3 39.2C74.4 38.9 74.7 38.8 75 38.8C75.3 38.8 75.5 38.9 75.7 39.2L87.3 62.4C87.4 62.6 87.5 62.9 87.4 63C87.3 63.1 87.1 63.3 86.8 63.3H83.7C83.4 63.3 83.1 63.2 82.8 63C82.5 62.8 82.3 62.6 82.2 62.3L81.2 60.3C81.1 60.1 80.9 59.8 80.6 59.7C80.3 59.5 80 59.4 79.7 59.4H70.2C69.9 59.4 69.6 59.5 69.3 59.7C69 59.9 68.8 60.1 68.7 60.4L67.7 62.4C67.6 62.7 67.4 62.9 67.1 63.1C66.8 63.3 66.5 63.4 66.2 63.4H63.2C62.9 63.4 62.7 63.3 62.6 63.1C62.6 62.9 62.6 62.7 62.7 62.4ZM72.5 55.4H77.5C77.8 55.4 78 55.3 78.1 55.1C78.2 54.9 78.2 54.7 78.1 54.4L75.5 48.9C75.4 48.6 75.2 48.5 75.1 48.5C75 48.5 74.8 48.6 74.7 48.9L72 54.4C71.9 54.7 71.9 54.9 72 55.1C72 55.3 72.2 55.4 72.5 55.4Z" fill="#1E1E1C"/>
<path d="M92.4 63.3H89.7C89.4 63.3 89.2 63.2 89 63C88.8 62.8 88.7 62.5 88.7 62.3V39.8C88.7 39.5 88.8 39.3 89 39.1C89.2 38.9 89.4 38.8 89.7 38.8H99.8C101 38.8 102.2 39 103.3 39.4C104.3 39.9 105.2 40.4 105.9 41.2C106.3 41.6 106.6 42 106.9 42.4C107.2 42.8 107.4 43.3 107.6 43.8C108 44.8 108.2 46 108.2 47.2C108.2 49.1 107.7 50.7 106.8 52.1C106.1 53.2 105.2 54 104 54.6C103.8 54.7 103.6 54.9 103.5 55.1C103.4 55.3 103.5 55.6 103.7 55.8C104.5 56.9 105.3 58 106.1 59C106.9 60 107.6 61 108.4 62.2C108.6 62.4 108.6 62.7 108.5 62.9C108.4 63.1 108.2 63.3 107.9 63.3H104.5C104.2 63.3 103.9 63.2 103.6 63.1C103.3 62.9 103 62.8 102.9 62.5C102.5 62 102.1 61.5 101.8 61C101.5 60.5 101.1 60 100.7 59.5L98.5 56.4C98.3 56.2 98.1 55.9 97.8 55.8C97.5 55.6 97.2 55.6 96.9 55.6H94.3C94 55.6 93.8 55.7 93.6 55.9C93.4 56.1 93.3 56.4 93.3 56.6V62.3C93.3 62.6 93.2 62.8 93 63C92.9 63.2 92.7 63.3 92.4 63.3ZM94.4 51.4H99.8C100.2 51.4 100.6 51.3 101.1 51.1C101.6 50.9 102 50.7 102.3 50.3C102.6 49.9 102.9 49.5 103.2 49C103.4 48.5 103.5 47.9 103.5 47.2C103.5 46.8 103.5 46.4 103.4 45.9C103.4 45.7 103.3 45.4 103.2 45.2C103.1 45 103 44.7 102.9 44.5C102.6 44 102.3 43.7 101.8 43.4C101.3 43.1 100.6 42.9 99.8 42.9H94.4C94.1 42.9 93.9 43 93.7 43.2C93.5 43.4 93.4 43.7 93.4 43.9V50.2C93.4 50.5 93.5 50.7 93.7 50.9C93.9 51.3 94.1 51.4 94.4 51.4Z" fill="#1E1E1C"/>
<path d="M115.9 63.3H113.3C113 63.3 112.8 63.2 112.6 63C112.4 62.8 112.3 62.5 112.3 62.3V39.8C112.3 39.5 112.4 39.3 112.6 39.1C112.8 38.9 113 38.8 113.3 38.8H123.4C124.6 38.8 125.8 39 126.9 39.4C127.9 39.9 128.8 40.4 129.6 41.2C130 41.6 130.3 42 130.6 42.4C130.9 42.8 131.1 43.3 131.3 43.8C131.7 44.8 131.9 46 131.9 47.2C131.9 49.1 131.4 50.7 130.5 52.1C129.8 53.2 128.9 54 127.7 54.6C127.5 54.7 127.3 54.9 127.2 55.1C127.1 55.3 127.2 55.6 127.4 55.8C128.2 56.9 129 58 129.8 59C130.6 60 131.3 61 132.1 62.2C132.3 62.4 132.3 62.7 132.2 62.9C132.1 63.1 131.9 63.3 131.6 63.3H128.2C127.9 63.3 127.6 63.2 127.3 63.1C127 62.9 126.7 62.8 126.6 62.5C126.2 62 125.8 61.5 125.5 61C125.2 60.5 124.8 60 124.4 59.5L122.2 56.4C122 56.2 121.8 55.9 121.5 55.8C121.2 55.6 120.9 55.6 120.6 55.6H118C117.7 55.6 117.5 55.7 117.3 55.9C117.1 56.1 117 56.4 117 56.6V62.3C117 62.6 116.9 62.8 116.7 63C116.4 63.2 116.1 63.3 115.9 63.3ZM117.9 51.4H123.3C123.7 51.4 124.1 51.3 124.6 51.1C125.1 50.9 125.5 50.7 125.8 50.3C126.1 49.9 126.4 49.5 126.7 49C126.9 48.5 127 47.9 127 47.2C127 46.8 127 46.4 126.9 45.9C126.9 45.7 126.8 45.4 126.7 45.2C126.6 45 126.5 44.7 126.4 44.5C126.1 44 125.8 43.7 125.3 43.4C124.8 43.1 124.1 42.9 123.3 42.9H117.9C117.6 42.9 117.4 43 117.2 43.2C117 43.4 116.9 43.7 116.9 43.9V50.2C116.9 50.5 117 50.7 117.2 50.9C117.4 51.3 117.6 51.4 117.9 51.4Z" fill="#1E1E1C"/>
<path d="M147.1 63.8C145.3 63.8 143.7 63.5 142.2 62.8C140.7 62.1 139.3 61.2 138.2 60.1C137.1 58.9 136.1 57.6 135.5 56.1C134.9 54.6 134.5 52.9 134.5 51.1C134.5 49.3 134.8 47.7 135.5 46.1C136.2 44.6 137.1 43.2 138.2 42C139.3 40.8 140.7 39.9 142.2 39.3C143.7 38.7 145.4 38.3 147.1 38.3C148.9 38.3 150.5 38.6 152.1 39.3C153.6 40 155 40.9 156.1 42C157.2 43.2 158.2 44.5 158.8 46.1C159.5 47.7 159.8 49.3 159.8 51.1C159.8 52.9 159.5 54.5 158.8 56.1C158.1 57.7 157.2 59 156.1 60.1C155 61.3 153.6 62.2 152.1 62.8C150.6 63.5 148.9 63.8 147.1 63.8ZM147.1 42.7C146 42.7 144.9 42.9 144 43.4C143.1 43.9 142.2 44.5 141.5 45.2C140.8 46 140.2 46.9 139.8 47.9C139.4 48.9 139.2 50 139.2 51.1C139.2 52.2 139.4 53.3 139.8 54.3C140.2 55.3 140.8 56.2 141.5 57C142.2 57.8 143.1 58.4 144 58.8C144.9 59.2 146 59.5 147.1 59.5C148.2 59.5 149.3 59.3 150.2 58.8C151.1 58.3 152 57.7 152.7 57C153.4 56.2 154 55.3 154.4 54.3C154.8 53.3 155 52.2 155 51.1C155 50 154.8 48.9 154.4 47.9C154 46.9 153.4 46 152.7 45.2C152 44.4 151.1 43.8 150.2 43.4C149.3 42.9 148.3 42.7 147.1 42.7Z" fill="#1E1E1C"/>
<path d="M169.6 59H180.8C181.1 59 181.3 59.1 181.5 59.3C181.7 59.5 181.8 59.8 181.8 60V62.3C181.8 62.6 181.7 62.8 181.5 63C181.3 63.2 181.1 63.3 180.8 63.3H161C160.7 63.3 160.5 63.1 160.4 62.9C160.3 62.6 160.4 62.3 160.5 62.1L173.4 44C173.6 43.8 173.6 43.5 173.5 43.4C173.4 43.2 173.2 43.2 172.9 43.2H162.3C162 43.2 161.8 43.1 161.6 42.9C161.4 42.7 161.3 42.4 161.3 42.2V40C161.3 39.7 161.4 39.5 161.6 39.3C161.8 39.1 162 39 162.3 39H181.5C181.8 39 182 39.2 182.1 39.4C182.2 39.7 182.1 40 182 40.2L169.1 58.3C168.9 58.5 168.9 58.8 169 58.9C169.1 58.9 169.3 59 169.6 59Z" fill="#1E1E1C"/>
</svg>
